<?xml version="1.0" encoding="UTF-8" standalone="no"?>
<!DOCTYPE svg PUBLIC "-//W3C//DTD SVG 1.1//EN"
 "http://www.w3.org/Graphics/SVG/1.1/DTD/svg11.dtd">
<!-- Generated by graphviz version 3.0.0 (0)
 -->
<!-- Pages: 1 -->
<svg width="216pt" height="191pt"
 viewBox="0.00 0.00 215.50 191.00" xmlns="http://www.w3.org/2000/svg" xmlns:xlink="http://www.w3.org/1999/xlink">
<g id="graph0" class="graph" transform="scale(1 1) rotate(0) translate(4 187)">
<polygon fill="white" stroke="transparent" points="-4,4 -4,-187 211.5,-187 211.5,4 -4,4"/>
<!-- main -->
<g id="node1" class="node">
<title>main</title>
<polygon fill="none" stroke="black" points="76,-146.5 76,-182.5 130,-182.5 130,-146.5 76,-146.5"/>
<text text-anchor="middle" x="103" y="-160.8" font-family="Times,serif" font-size="14.00">main</text>
</g>
<!-- libone.so.1 -->
<g id="node4" class="node">
<title>libone.so.1</title>
<polygon fill="none" stroke="black" points="0,-73.5 0,-109.5 94,-109.5 94,-73.5 0,-73.5"/>
<text text-anchor="middle" x="47" y="-87.8" font-family="Times,serif" font-size="14.00">libone.so.1</text>
</g>
<!-- main&#45;&gt;libone.so.1 -->
<g id="edge1" class="edge">
<title>main&#45;&gt;libone.so.1</title>
<path fill="none" stroke="black" d="M89.44,-146.31C82.63,-137.68 74.25,-127.06 66.75,-117.53"/>
<polygon fill="black" stroke="black" points="69.37,-115.21 60.43,-109.53 63.88,-119.55 69.37,-115.21"/>
</g>
<!-- libtwo.so.1 -->
<g id="node5" class="node">
<title>libtwo.so.1</title>
<polygon fill="none" stroke="black" points="112.5,-73.5 112.5,-109.5 207.5,-109.5 207.5,-73.5 112.5,-73.5"/>
<text text-anchor="middle" x="160" y="-87.8" font-family="Times,serif" font-size="14.00">libtwo.so.1</text>
</g>
<!-- main&#45;&gt;libtwo.so.1 -->
<g id="edge2" class="edge">
<title>main&#45;&gt;libtwo.so.1</title>
<path fill="none" stroke="black" d="M116.8,-146.31C123.73,-137.68 132.26,-127.06 139.9,-117.53"/>
<polygon fill="black" stroke="black" points="142.8,-119.52 146.33,-109.53 137.34,-115.14 142.8,-119.52"/>
</g>
<!-- libfoo.so.5 -->
<g id="node2" class="node">
<title>libfoo.so.5</title>
<polygon fill="lightgreen" stroke="black" points="2,-0.5 2,-36.5 92,-36.5 92,-0.5 2,-0.5"/>
<text text-anchor="middle" x="47" y="-14.8" font-family="Times,serif" font-size="14.00">libfoo.so.5</text>
</g>
<!-- libfoo.so.6 -->
<g id="node3" class="node">
<title>libfoo.so.6</title>
<polygon fill="lightgreen" stroke="black" points="112,-0.5 112,-36.5 202,-36.5 202,-0.5 112,-0.5"/>
<text text-anchor="middle" x="157" y="-14.8" font-family="Times,serif" font-size="14.00">libfoo.so.6</text>
</g>
<!-- libone.so.1&#45;&gt;libfoo.so.5 -->
<!-- libone.so.1&#45;&gt;libfoo.so.6 -->
<g id="edge3" class="edge">
<title>libone.so.1&#45;&gt;libfoo.so.6</title>
<path fill="none" stroke="green" d="M73.35,-73.49C87.93,-64.08 106.25,-52.26 122.02,-42.07"/>
<polygon fill="green" stroke="green" points="123.98,-44.98 130.49,-36.61 120.19,-39.1 123.98,-44.98"/>
</g>
<!-- libtwo.so.1&#45;&gt;libfoo.so.6 -->
<g id="edge5" class="edge">
<title>libtwo.so.1&#45;&gt;libfoo.so.6</title>
<path fill="none" stroke="green" d="M159.27,-73.31C158.93,-65.29 158.52,-55.55 158.14,-46.57"/>
<polygon fill="green" stroke="green" points="161.64,-46.37 157.72,-36.53 154.64,-46.67 161.64,-46.37"/>
</g>
</g>
</svg>
