<?xml version="1.0" encoding="UTF-8" standalone="no"?>
<!DOCTYPE svg PUBLIC "-//W3C//DTD SVG 1.1//EN"
 "http://www.w3.org/Graphics/SVG/1.1/DTD/svg11.dtd">
<!-- Generated by graphviz version 3.0.0 (0)
 -->
<!-- Pages: 1 -->
<svg width="517pt" height="173pt"
 viewBox="0.00 0.00 517.00 173.00" xmlns="http://www.w3.org/2000/svg" xmlns:xlink="http://www.w3.org/1999/xlink">
<g id="graph0" class="graph" transform="scale(1 1) rotate(0) translate(4 169)">
<polygon fill="white" stroke="transparent" points="-4,4 -4,-169 513,-169 513,4 -4,4"/>
<g id="clust1" class="cluster">
<title>clusterMono</title>
<polygon fill="none" stroke="black" points="8,-81 8,-157 243,-157 243,-81 8,-81"/>
<text text-anchor="middle" x="125.5" y="-141.8" font-family="Times,serif" font-size="14.00">main.elf (embeds library code)</text>
</g>
<g id="clust2" class="cluster">
<title>clusterDyn</title>
<polygon fill="none" stroke="black" points="251,-8 251,-157 501,-157 501,-8 251,-8"/>
<text text-anchor="middle" x="376" y="-141.8" font-family="Times,serif" font-size="14.00">main.elf links to a shared library</text>
</g>
<!-- mono -->
<g id="node1" class="node">
<title>mono</title>
<polygon fill="none" stroke="black" points="69,-89.5 69,-125.5 181,-125.5 181,-89.5 69,-89.5"/>
<text text-anchor="middle" x="101.5" y="-103.8" font-family="Times,serif" font-size="14.00">main.o</text>
<polyline fill="none" stroke="black" points="134,-89.5 134,-125.5 "/>
<text text-anchor="middle" x="157.5" y="-103.8" font-family="Times,serif" font-size="14.00">lib.o</text>
</g>
<!-- dyprog -->
<g id="node2" class="node">
<title>dyprog</title>
<polygon fill="none" stroke="black" points="307.5,-89.5 307.5,-125.5 444.5,-125.5 444.5,-89.5 307.5,-89.5"/>
<text text-anchor="middle" x="376" y="-103.8" font-family="Times,serif" font-size="14.00">main.elf (main.o)</text>
</g>
<!-- dylib -->
<g id="node3" class="node">
<title>dylib</title>
<polygon fill="none" stroke="black" points="312.5,-16.5 312.5,-52.5 439.5,-52.5 439.5,-16.5 312.5,-16.5"/>
<text text-anchor="middle" x="376" y="-30.8" font-family="Times,serif" font-size="14.00">libdep.so (lib.o)</text>
</g>
<!-- dyprog&#45;&gt;dylib -->
<g id="edge1" class="edge">
<title>dyprog&#45;&gt;dylib</title>
<path fill="none" stroke="black" stroke-width="5" d="M376,-89.31C376,-81.29 376,-71.55 376,-62.57"/>
<polygon fill="black" stroke="black" stroke-width="5" points="380.38,-62.53 376,-52.53 371.63,-62.53 380.38,-62.53"/>
</g>
</g>
</svg>
