<?xml version="1.0" encoding="UTF-8" standalone="no"?>
<!DOCTYPE svg PUBLIC "-//W3C//DTD SVG 1.1//EN"
 "http://www.w3.org/Graphics/SVG/1.1/DTD/svg11.dtd">
<!-- Generated by graphviz version 3.0.0 (0)
 -->
<!-- Pages: 1 -->
<svg width="315pt" height="191pt"
 viewBox="0.00 0.00 315.00 191.00" xmlns="http://www.w3.org/2000/svg" xmlns:xlink="http://www.w3.org/1999/xlink">
<g id="graph0" class="graph" transform="scale(1 1) rotate(0) translate(4 187)">
<polygon fill="white" stroke="transparent" points="-4,4 -4,-187 311,-187 311,4 -4,4"/>
<!-- qtwebengine -->
<g id="node1" class="node">
<title>qtwebengine</title>
<polygon fill="none" stroke="black" points="27.5,-73.5 27.5,-109.5 136.5,-109.5 136.5,-73.5 27.5,-73.5"/>
<text text-anchor="middle" x="82" y="-87.8" font-family="Times,serif" font-size="14.00">qtwebengine</text>
</g>
<!-- ffmpeg&#45;4 -->
<g id="node2" class="node">
<title>ffmpeg&#45;4</title>
<polygon fill="pink" stroke="black" points="0,-0.5 0,-36.5 80,-36.5 80,-0.5 0,-0.5"/>
<text text-anchor="middle" x="40" y="-14.8" font-family="Times,serif" font-size="14.00">ffmpeg&#45;4</text>
</g>
<!-- qtwebengine&#45;&gt;ffmpeg&#45;4 -->
<g id="edge1" class="edge">
<title>qtwebengine&#45;&gt;ffmpeg&#45;4</title>
<path fill="none" stroke="black" d="M71.83,-73.31C66.88,-64.94 60.82,-54.7 55.32,-45.4"/>
<polygon fill="black" stroke="black" points="58.18,-43.35 50.07,-36.53 52.15,-46.92 58.18,-43.35"/>
</g>
<!-- ... -->
<g id="node3" class="node">
<title>...</title>
<polygon fill="none" stroke="black" points="98,-0.5 98,-36.5 152,-36.5 152,-0.5 98,-0.5"/>
<text text-anchor="middle" x="125" y="-14.8" font-family="Times,serif" font-size="14.00">...</text>
</g>
<!-- qtwebengine&#45;&gt;... -->
<g id="edge2" class="edge">
<title>qtwebengine&#45;&gt;...</title>
<path fill="none" stroke="black" d="M92.41,-73.31C97.53,-64.85 103.81,-54.48 109.49,-45.11"/>
<polygon fill="black" stroke="black" points="112.5,-46.9 114.69,-36.53 106.51,-43.27 112.5,-46.9"/>
</g>
<!-- amarok -->
<g id="node4" class="node">
<title>amarok</title>
<polygon fill="none" stroke="black" points="160,-146.5 160,-182.5 230,-182.5 230,-146.5 160,-146.5"/>
<text text-anchor="middle" x="195" y="-160.8" font-family="Times,serif" font-size="14.00">amarok</text>
</g>
<!-- amarok&#45;&gt;qtwebengine -->
<g id="edge4" class="edge">
<title>amarok&#45;&gt;qtwebengine</title>
<path fill="none" stroke="black" d="M167.93,-146.49C152.95,-137.08 134.13,-125.26 117.93,-115.07"/>
<polygon fill="black" stroke="black" points="119.57,-111.97 109.24,-109.61 115.84,-117.9 119.57,-111.97"/>
</g>
<!-- ffmpeg&#45;5 -->
<g id="node5" class="node">
<title>ffmpeg&#45;5</title>
<polygon fill="pink" stroke="black" points="155,-73.5 155,-109.5 235,-109.5 235,-73.5 155,-73.5"/>
<text text-anchor="middle" x="195" y="-87.8" font-family="Times,serif" font-size="14.00">ffmpeg&#45;5</text>
</g>
<!-- amarok&#45;&gt;ffmpeg&#45;5 -->
<g id="edge3" class="edge">
<title>amarok&#45;&gt;ffmpeg&#45;5</title>
<path fill="none" stroke="black" d="M195,-146.31C195,-138.29 195,-128.55 195,-119.57"/>
<polygon fill="black" stroke="black" points="198.5,-119.53 195,-109.53 191.5,-119.53 198.5,-119.53"/>
</g>
<!-- ...  -->
<g id="node6" class="node">
<title>... </title>
<polygon fill="none" stroke="black" points="253,-73.5 253,-109.5 307,-109.5 307,-73.5 253,-73.5"/>
<text text-anchor="middle" x="280" y="-87.8" font-family="Times,serif" font-size="14.00">... </text>
</g>
<!-- amarok&#45;&gt;...  -->
<g id="edge5" class="edge">
<title>amarok&#45;&gt;... </title>
<path fill="none" stroke="black" d="M215.58,-146.31C226.43,-137.24 239.92,-125.98 251.75,-116.1"/>
<polygon fill="black" stroke="black" points="254.18,-118.63 259.61,-109.53 249.69,-113.25 254.18,-118.63"/>
</g>
</g>
</svg>
