<?xml version="1.0" encoding="UTF-8" standalone="no"?>
<!DOCTYPE svg PUBLIC "-//W3C//DTD SVG 1.1//EN"
 "http://www.w3.org/Graphics/SVG/1.1/DTD/svg11.dtd">
<!-- Generated by graphviz version 3.0.0 (0)
 -->
<!-- Pages: 1 -->
<svg width="859pt" height="118pt"
 viewBox="0.00 0.00 859.00 118.00" xmlns="http://www.w3.org/2000/svg" xmlns:xlink="http://www.w3.org/1999/xlink">
<g id="graph0" class="graph" transform="scale(1 1) rotate(0) translate(4 114)">
<polygon fill="white" stroke="transparent" points="-4,4 -4,-114 855,-114 855,4 -4,4"/>
<!-- strip&#45;2.38 -->
<g id="node1" class="node">
<title>strip&#45;2.38</title>
<polygon fill="none" stroke="black" points="8.5,-73.5 8.5,-109.5 94.5,-109.5 94.5,-73.5 8.5,-73.5"/>
<text text-anchor="middle" x="51.5" y="-87.8" font-family="Times,serif" font-size="14.00">strip&#45;2.38</text>
</g>
<!-- .../binutils/.../2.38/libbfd&#45;2.38&#45;64&#45;bit.so -->
<g id="node2" class="node">
<title>.../binutils/.../2.38/libbfd&#45;2.38&#45;64&#45;bit.so</title>
<polygon fill="none" stroke="black" points="0,-0.5 0,-36.5 291,-36.5 291,-0.5 0,-0.5"/>
<text text-anchor="middle" x="145.5" y="-14.8" font-family="Times,serif" font-size="14.00">.../binutils/.../2.38/libbfd&#45;2.38&#45;64&#45;bit.so</text>
</g>
<!-- strip&#45;2.38&#45;&gt;.../binutils/.../2.38/libbfd&#45;2.38&#45;64&#45;bit.so -->
<g id="edge1" class="edge">
<title>strip&#45;2.38&#45;&gt;.../binutils/.../2.38/libbfd&#45;2.38&#45;64&#45;bit.so</title>
<path fill="none" stroke="black" d="M74.25,-73.31C86.38,-64.16 101.47,-52.76 114.63,-42.82"/>
<polygon fill="black" stroke="black" points="117.08,-45.35 122.95,-36.53 112.87,-39.76 117.08,-45.35"/>
</g>
<!-- ld&#45;2.38 -->
<g id="node3" class="node">
<title>ld&#45;2.38</title>
<polygon fill="none" stroke="black" points="112.5,-73.5 112.5,-109.5 178.5,-109.5 178.5,-73.5 112.5,-73.5"/>
<text text-anchor="middle" x="145.5" y="-87.8" font-family="Times,serif" font-size="14.00">ld&#45;2.38</text>
</g>
<!-- ld&#45;2.38&#45;&gt;.../binutils/.../2.38/libbfd&#45;2.38&#45;64&#45;bit.so -->
<g id="edge2" class="edge">
<title>ld&#45;2.38&#45;&gt;.../binutils/.../2.38/libbfd&#45;2.38&#45;64&#45;bit.so</title>
<path fill="none" stroke="black" d="M145.5,-73.31C145.5,-65.29 145.5,-55.55 145.5,-46.57"/>
<polygon fill="black" stroke="black" points="149,-46.53 145.5,-36.53 142,-46.53 149,-46.53"/>
</g>
<!-- ... -->
<g id="node4" class="node">
<title>...</title>
<polygon fill="none" stroke="black" points="196.5,-73.5 196.5,-109.5 250.5,-109.5 250.5,-73.5 196.5,-73.5"/>
<text text-anchor="middle" x="223.5" y="-87.8" font-family="Times,serif" font-size="14.00">...</text>
</g>
<!-- ...&#45;&gt;.../binutils/.../2.38/libbfd&#45;2.38&#45;64&#45;bit.so -->
<g id="edge3" class="edge">
<title>...&#45;&gt;.../binutils/.../2.38/libbfd&#45;2.38&#45;64&#45;bit.so</title>
<path fill="none" stroke="black" d="M204.62,-73.31C194.75,-64.33 182.52,-53.19 171.74,-43.39"/>
<polygon fill="black" stroke="black" points="173.96,-40.67 164.21,-36.53 169.25,-45.85 173.96,-40.67"/>
</g>
<!-- ld&#45;2.37 -->
<g id="node5" class="node">
<title>ld&#45;2.37</title>
<polygon fill="none" stroke="black" points="382.5,-73.5 382.5,-109.5 448.5,-109.5 448.5,-73.5 382.5,-73.5"/>
<text text-anchor="middle" x="415.5" y="-87.8" font-family="Times,serif" font-size="14.00">ld&#45;2.37</text>
</g>
<!-- .../binutils/.../2.37/libbfd&#45;2.37&#45;64&#45;bit.so -->
<g id="node6" class="node">
<title>.../binutils/.../2.37/libbfd&#45;2.37&#45;64&#45;bit.so</title>
<polygon fill="none" stroke="black" points="309,-0.5 309,-36.5 600,-36.5 600,-0.5 309,-0.5"/>
<text text-anchor="middle" x="454.5" y="-14.8" font-family="Times,serif" font-size="14.00">.../binutils/.../2.37/libbfd&#45;2.37&#45;64&#45;bit.so</text>
</g>
<!-- ld&#45;2.37&#45;&gt;.../binutils/.../2.37/libbfd&#45;2.37&#45;64&#45;bit.so -->
<g id="edge4" class="edge">
<title>ld&#45;2.37&#45;&gt;.../binutils/.../2.37/libbfd&#45;2.37&#45;64&#45;bit.so</title>
<path fill="none" stroke="black" d="M424.94,-73.31C429.54,-64.94 435.17,-54.7 440.27,-45.4"/>
<polygon fill="black" stroke="black" points="443.4,-46.98 445.15,-36.53 437.26,-43.61 443.4,-46.98"/>
</g>
<!-- ...  -->
<g id="node7" class="node">
<title>... </title>
<polygon fill="none" stroke="black" points="466.5,-73.5 466.5,-109.5 520.5,-109.5 520.5,-73.5 466.5,-73.5"/>
<text text-anchor="middle" x="493.5" y="-87.8" font-family="Times,serif" font-size="14.00">... </text>
</g>
<!-- ... &#45;&gt;.../binutils/.../2.37/libbfd&#45;2.37&#45;64&#45;bit.so -->
<g id="edge5" class="edge">
<title>... &#45;&gt;.../binutils/.../2.37/libbfd&#45;2.37&#45;64&#45;bit.so</title>
<path fill="none" stroke="black" d="M484.06,-73.31C479.46,-64.94 473.83,-54.7 468.73,-45.4"/>
<polygon fill="black" stroke="black" points="471.74,-43.61 463.85,-36.53 465.6,-46.98 471.74,-43.61"/>
</g>
<!-- perf -->
<g id="node8" class="node">
<title>perf</title>
<polygon fill="none" stroke="black" points="635.5,-73.5 635.5,-109.5 689.5,-109.5 689.5,-73.5 635.5,-73.5"/>
<text text-anchor="middle" x="662.5" y="-87.8" font-family="Times,serif" font-size="14.00">perf</text>
</g>
<!-- /usr/lib64/libbfd&#45;2.38&#45;32&#45;bit.so -->
<g id="node9" class="node">
<title>/usr/lib64/libbfd&#45;2.38&#45;32&#45;bit.so</title>
<polygon fill="none" stroke="black" points="618,-0.5 618,-36.5 851,-36.5 851,-0.5 618,-0.5"/>
<text text-anchor="middle" x="734.5" y="-14.8" font-family="Times,serif" font-size="14.00">/usr/lib64/libbfd&#45;2.38&#45;32&#45;bit.so</text>
</g>
<!-- perf&#45;&gt;/usr/lib64/libbfd&#45;2.38&#45;32&#45;bit.so -->
<g id="edge6" class="edge">
<title>perf&#45;&gt;/usr/lib64/libbfd&#45;2.38&#45;32&#45;bit.so</title>
<path fill="none" stroke="black" d="M679.93,-73.31C688.95,-64.42 700.11,-53.41 709.99,-43.67"/>
<polygon fill="black" stroke="black" points="712.57,-46.04 717.23,-36.53 707.65,-41.06 712.57,-46.04"/>
</g>
<!-- ghc -->
<g id="node10" class="node">
<title>ghc</title>
<polygon fill="none" stroke="black" points="707.5,-73.5 707.5,-109.5 761.5,-109.5 761.5,-73.5 707.5,-73.5"/>
<text text-anchor="middle" x="734.5" y="-87.8" font-family="Times,serif" font-size="14.00">ghc</text>
</g>
<!-- ghc&#45;&gt;/usr/lib64/libbfd&#45;2.38&#45;32&#45;bit.so -->
<g id="edge7" class="edge">
<title>ghc&#45;&gt;/usr/lib64/libbfd&#45;2.38&#45;32&#45;bit.so</title>
<path fill="none" stroke="black" d="M734.5,-73.31C734.5,-65.29 734.5,-55.55 734.5,-46.57"/>
<polygon fill="black" stroke="black" points="738,-46.53 734.5,-36.53 731,-46.53 738,-46.53"/>
</g>
<!-- ... &#160; -->
<g id="node11" class="node">
<title>... &#160;</title>
<polygon fill="none" stroke="black" points="779.5,-73.5 779.5,-109.5 833.5,-109.5 833.5,-73.5 779.5,-73.5"/>
<text text-anchor="middle" x="806.5" y="-87.8" font-family="Times,serif" font-size="14.00">... &#160;</text>
</g>
<!-- ... &#160;&#45;&gt;/usr/lib64/libbfd&#45;2.38&#45;32&#45;bit.so -->
<g id="edge8" class="edge">
<title>... &#160;&#45;&gt;/usr/lib64/libbfd&#45;2.38&#45;32&#45;bit.so</title>
<path fill="none" stroke="black" d="M789.07,-73.31C780.05,-64.42 768.89,-53.41 759.01,-43.67"/>
<polygon fill="black" stroke="black" points="761.35,-41.06 751.77,-36.53 756.43,-46.04 761.35,-41.06"/>
</g>
</g>
</svg>
