<?xml version="1.0" encoding="UTF-8" standalone="no"?>
<!DOCTYPE svg PUBLIC "-//W3C//DTD SVG 1.1//EN"
 "http://www.w3.org/Graphics/SVG/1.1/DTD/svg11.dtd">
<!-- Generated by graphviz version 3.0.0 (0)
 -->
<!-- Pages: 1 -->
<svg width="374pt" height="145pt"
 viewBox="0.00 0.00 373.50 145.00" xmlns="http://www.w3.org/2000/svg" xmlns:xlink="http://www.w3.org/1999/xlink">
<g id="graph0" class="graph" transform="scale(1 1) rotate(0) translate(4 141)">
<polygon fill="white" stroke="transparent" points="-4,4 -4,-141 369.5,-141 369.5,4 -4,4"/>
<text text-anchor="middle" x="182.75" y="-7.8" font-family="Times,serif" font-size="14.00">Which lib_name() will be used?</text>
<!-- main -->
<g id="node1" class="node">
<title>main</title>
<polygon fill="none" stroke="black" points="110.5,-98.5 110.5,-136.5 238.5,-136.5 238.5,-98.5 110.5,-98.5"/>
<text text-anchor="middle" x="174.5" y="-121.3" font-family="Times,serif" font-size="14.00">main:</text>
<text text-anchor="middle" x="174.5" y="-106.3" font-family="Times,serif" font-size="14.00">uses lib_name()</text>
</g>
<!-- libl1.so -->
<g id="node2" class="node">
<title>libl1.so</title>
<polygon fill="none" stroke="black" points="0,-23.5 0,-61.5 157,-61.5 157,-23.5 0,-23.5"/>
<text text-anchor="middle" x="78.5" y="-46.3" font-family="Times,serif" font-size="14.00">libl1.so:</text>
<text text-anchor="middle" x="78.5" y="-31.3" font-family="Times,serif" font-size="14.00">provides lib_name()</text>
</g>
<!-- main&#45;&gt;libl1.so -->
<g id="edge1" class="edge">
<title>main&#45;&gt;libl1.so</title>
<path fill="none" stroke="red" d="M150.77,-98.46C138.65,-89.24 123.74,-77.9 110.61,-67.92"/>
<polygon fill="red" stroke="red" points="112.37,-64.86 102.29,-61.59 108.13,-70.43 112.37,-64.86"/>
</g>
<!-- libl2.so -->
<g id="node3" class="node">
<title>libl2.so</title>
<polygon fill="none" stroke="black" points="175.5,-23.5 175.5,-61.5 365.5,-61.5 365.5,-23.5 175.5,-23.5"/>
<text text-anchor="middle" x="270.5" y="-46.3" font-family="Times,serif" font-size="14.00">libl2.so:</text>
<text text-anchor="middle" x="270.5" y="-31.3" font-family="Times,serif" font-size="14.00">also provides lib_name()</text>
</g>
<!-- main&#45;&gt;libl2.so -->
<g id="edge2" class="edge">
<title>main&#45;&gt;libl2.so</title>
<path fill="none" stroke="red" d="M198.23,-98.46C210.35,-89.24 225.26,-77.9 238.39,-67.92"/>
<polygon fill="red" stroke="red" points="240.87,-70.43 246.71,-61.59 236.63,-64.86 240.87,-70.43"/>
</g>
</g>
</svg>
