<?xml version="1.0" encoding="UTF-8" standalone="no"?>
<!DOCTYPE svg PUBLIC "-//W3C//DTD SVG 1.1//EN"
 "http://www.w3.org/Graphics/SVG/1.1/DTD/svg11.dtd">
<!-- Generated by graphviz version 3.0.0 (0)
 -->
<!-- Pages: 1 -->
<svg width="724pt" height="207pt"
 viewBox="0.00 0.00 724.00 207.00" xmlns="http://www.w3.org/2000/svg" xmlns:xlink="http://www.w3.org/1999/xlink">
<g id="graph0" class="graph" transform="scale(1 1) rotate(0) translate(4 203)">
<polygon fill="white" stroke="transparent" points="-4,4 -4,-203 720,-203 720,4 -4,4"/>
<!-- strip -->
<g id="node1" class="node">
<title>strip</title>
<polygon fill="none" stroke="black" points="16,-162.5 16,-198.5 70,-198.5 70,-162.5 16,-162.5"/>
<text text-anchor="middle" x="43" y="-176.8" font-family="Times,serif" font-size="14.00">strip</text>
</g>
<!-- strip&#45;2.38 -->
<g id="node2" class="node">
<title>strip&#45;2.38</title>
<polygon fill="none" stroke="black" points="0,-74.5 0,-110.5 86,-110.5 86,-74.5 0,-74.5"/>
<text text-anchor="middle" x="43" y="-88.8" font-family="Times,serif" font-size="14.00">strip&#45;2.38</text>
</g>
<!-- strip&#45;&gt;strip&#45;2.38 -->
<g id="edge1" class="edge">
<title>strip&#45;&gt;strip&#45;2.38</title>
<path fill="none" stroke="black" d="M43,-162.1C43,-150.25 43,-134.32 43,-120.79"/>
<polygon fill="black" stroke="black" points="46.5,-120.58 43,-110.58 39.5,-120.58 46.5,-120.58"/>
<text text-anchor="middle" x="71" y="-132.8" font-family="Times,serif" font-size="14.00">symlink</text>
</g>
<!-- .../binutils/.../2.38/libbfd&#45;2.38.so -->
<g id="node3" class="node">
<title>.../binutils/.../2.38/libbfd&#45;2.38.so</title>
<polygon fill="none" stroke="black" points="14.5,-0.5 14.5,-36.5 259.5,-36.5 259.5,-0.5 14.5,-0.5"/>
<text text-anchor="middle" x="137" y="-14.8" font-family="Times,serif" font-size="14.00">.../binutils/.../2.38/libbfd&#45;2.38.so</text>
</g>
<!-- strip&#45;2.38&#45;&gt;.../binutils/.../2.38/libbfd&#45;2.38.so -->
<g id="edge2" class="edge">
<title>strip&#45;2.38&#45;&gt;.../binutils/.../2.38/libbfd&#45;2.38.so</title>
<path fill="none" stroke="black" d="M65.28,-74.44C77.6,-65 93.08,-53.14 106.51,-42.85"/>
<polygon fill="black" stroke="black" points="108.75,-45.55 114.56,-36.69 104.49,-39.99 108.75,-45.55"/>
</g>
<!-- ld&#45;2.38 -->
<g id="node4" class="node">
<title>ld&#45;2.38</title>
<polygon fill="none" stroke="black" points="104,-74.5 104,-110.5 170,-110.5 170,-74.5 104,-74.5"/>
<text text-anchor="middle" x="137" y="-88.8" font-family="Times,serif" font-size="14.00">ld&#45;2.38</text>
</g>
<!-- ld&#45;2.38&#45;&gt;.../binutils/.../2.38/libbfd&#45;2.38.so -->
<g id="edge3" class="edge">
<title>ld&#45;2.38&#45;&gt;.../binutils/.../2.38/libbfd&#45;2.38.so</title>
<path fill="none" stroke="black" d="M137,-74.44C137,-66.31 137,-56.38 137,-47.2"/>
<polygon fill="black" stroke="black" points="140.5,-46.94 137,-36.94 133.5,-46.94 140.5,-46.94"/>
</g>
<!-- ... -->
<g id="node5" class="node">
<title>...</title>
<polygon fill="none" stroke="black" points="188,-74.5 188,-110.5 242,-110.5 242,-74.5 188,-74.5"/>
<text text-anchor="middle" x="215" y="-88.8" font-family="Times,serif" font-size="14.00">...</text>
</g>
<!-- ...&#45;&gt;.../binutils/.../2.38/libbfd&#45;2.38.so -->
<g id="edge4" class="edge">
<title>...&#45;&gt;.../binutils/.../2.38/libbfd&#45;2.38.so</title>
<path fill="none" stroke="black" d="M196.52,-74.44C186.58,-65.27 174.17,-53.81 163.25,-43.73"/>
<polygon fill="black" stroke="black" points="165.34,-40.9 155.62,-36.69 160.6,-46.04 165.34,-40.9"/>
</g>
<!-- ld&#45;2.37 -->
<g id="node6" class="node">
<title>ld&#45;2.37</title>
<polygon fill="none" stroke="black" points="311,-162.5 311,-198.5 377,-198.5 377,-162.5 311,-162.5"/>
<text text-anchor="middle" x="344" y="-176.8" font-family="Times,serif" font-size="14.00">ld&#45;2.37</text>
</g>
<!-- .../binutils/.../2.37/libbfd&#45;2.37.so -->
<g id="node7" class="node">
<title>.../binutils/.../2.37/libbfd&#45;2.37.so</title>
<polygon fill="none" stroke="black" points="260.5,-74.5 260.5,-110.5 505.5,-110.5 505.5,-74.5 260.5,-74.5"/>
<text text-anchor="middle" x="383" y="-88.8" font-family="Times,serif" font-size="14.00">.../binutils/.../2.37/libbfd&#45;2.37.so</text>
</g>
<!-- ld&#45;2.37&#45;&gt;.../binutils/.../2.37/libbfd&#45;2.37.so -->
<g id="edge5" class="edge">
<title>ld&#45;2.37&#45;&gt;.../binutils/.../2.37/libbfd&#45;2.37.so</title>
<path fill="none" stroke="black" d="M351.89,-162.1C357.37,-150.01 364.78,-133.68 370.99,-119.99"/>
<polygon fill="black" stroke="black" points="374.31,-121.14 375.25,-110.58 367.93,-118.25 374.31,-121.14"/>
</g>
<!-- ...  -->
<g id="node8" class="node">
<title>... </title>
<polygon fill="none" stroke="black" points="395,-162.5 395,-198.5 449,-198.5 449,-162.5 395,-162.5"/>
<text text-anchor="middle" x="422" y="-176.8" font-family="Times,serif" font-size="14.00">... </text>
</g>
<!-- ... &#45;&gt;.../binutils/.../2.37/libbfd&#45;2.37.so -->
<g id="edge6" class="edge">
<title>... &#45;&gt;.../binutils/.../2.37/libbfd&#45;2.37.so</title>
<path fill="none" stroke="black" d="M414.11,-162.1C408.63,-150.01 401.22,-133.68 395.01,-119.99"/>
<polygon fill="black" stroke="black" points="398.07,-118.25 390.75,-110.58 391.69,-121.14 398.07,-118.25"/>
</g>
<!-- perf -->
<g id="node9" class="node">
<title>perf</title>
<polygon fill="none" stroke="black" points="518,-162.5 518,-198.5 572,-198.5 572,-162.5 518,-162.5"/>
<text text-anchor="middle" x="545" y="-176.8" font-family="Times,serif" font-size="14.00">perf</text>
</g>
<!-- /usr/lib64/libbfd&#45;2.38.so -->
<g id="node10" class="node">
<title>/usr/lib64/libbfd&#45;2.38.so</title>
<polygon fill="none" stroke="black" points="523.5,-74.5 523.5,-110.5 710.5,-110.5 710.5,-74.5 523.5,-74.5"/>
<text text-anchor="middle" x="617" y="-88.8" font-family="Times,serif" font-size="14.00">/usr/lib64/libbfd&#45;2.38.so</text>
</g>
<!-- perf&#45;&gt;/usr/lib64/libbfd&#45;2.38.so -->
<g id="edge7" class="edge">
<title>perf&#45;&gt;/usr/lib64/libbfd&#45;2.38.so</title>
<path fill="none" stroke="black" d="M559.57,-162.1C570.08,-149.54 584.42,-132.41 596.15,-118.41"/>
<polygon fill="black" stroke="black" points="598.96,-120.5 602.7,-110.58 593.59,-116 598.96,-120.5"/>
</g>
<!-- ghc -->
<g id="node11" class="node">
<title>ghc</title>
<polygon fill="none" stroke="black" points="590,-162.5 590,-198.5 644,-198.5 644,-162.5 590,-162.5"/>
<text text-anchor="middle" x="617" y="-176.8" font-family="Times,serif" font-size="14.00">ghc</text>
</g>
<!-- ghc&#45;&gt;/usr/lib64/libbfd&#45;2.38.so -->
<g id="edge8" class="edge">
<title>ghc&#45;&gt;/usr/lib64/libbfd&#45;2.38.so</title>
<path fill="none" stroke="black" d="M617,-162.1C617,-150.25 617,-134.32 617,-120.79"/>
<polygon fill="black" stroke="black" points="620.5,-120.58 617,-110.58 613.5,-120.58 620.5,-120.58"/>
</g>
<!-- ... &#160; -->
<g id="node12" class="node">
<title>... &#160;</title>
<polygon fill="none" stroke="black" points="662,-162.5 662,-198.5 716,-198.5 716,-162.5 662,-162.5"/>
<text text-anchor="middle" x="689" y="-176.8" font-family="Times,serif" font-size="14.00">... &#160;</text>
</g>
<!-- ... &#160;&#45;&gt;/usr/lib64/libbfd&#45;2.38.so -->
<g id="edge9" class="edge">
<title>... &#160;&#45;&gt;/usr/lib64/libbfd&#45;2.38.so</title>
<path fill="none" stroke="black" d="M674.43,-162.1C663.92,-149.54 649.58,-132.41 637.85,-118.41"/>
<polygon fill="black" stroke="black" points="640.41,-116 631.3,-110.58 635.04,-120.5 640.41,-116"/>
</g>
</g>
</svg>
