<?xml version="1.0" encoding="UTF-8" standalone="no"?>
<!DOCTYPE svg PUBLIC "-//W3C//DTD SVG 1.1//EN"
 "http://www.w3.org/Graphics/SVG/1.1/DTD/svg11.dtd">
<!-- Generated by graphviz version 3.0.0 (0)
 -->
<!-- Pages: 1 -->
<svg width="1814pt" height="620pt"
 viewBox="0.00 0.00 1814.00 620.00" xmlns="http://www.w3.org/2000/svg" xmlns:xlink="http://www.w3.org/1999/xlink">
<g id="graph0" class="graph" transform="scale(1 1) rotate(0) translate(4 616)">
<polygon fill="white" stroke="transparent" points="-4,4 -4,-616 1810,-616 1810,4 -4,4"/>
<!-- gdb -->
<g id="node1" class="node">
<title>gdb</title>
<polygon fill="none" stroke="black" points="1272,-612 1218,-612 1218,-576 1272,-576 1272,-612"/>
<text text-anchor="middle" x="1245" y="-590.3" font-family="Times,serif" font-size="14.00">gdb</text>
</g>
<!-- ld&#45;linux&#45;x86&#45;64.so.2 -->
<g id="node2" class="node">
<title>ld&#45;linux&#45;x86&#45;64.so.2</title>
<polygon fill="none" stroke="black" points="489,-36 333,-36 333,0 489,0 489,-36"/>
<text text-anchor="middle" x="411" y="-14.3" font-family="Times,serif" font-size="14.00">ld&#45;linux&#45;x86&#45;64.so.2</text>
</g>
<!-- gdb&#45;&gt;ld&#45;linux&#45;x86&#45;64.so.2 -->
<g id="edge1" class="edge">
<title>gdb&#45;&gt;ld&#45;linux&#45;x86&#45;64.so.2</title>
<path fill="none" stroke="black" d="M1217.84,-592.85C1035.77,-591.46 0,-577.99 0,-451 0,-451 0,-451 0,-161 0,-90.98 65.33,-98.84 130,-72 191.64,-46.42 266.03,-33.09 322.78,-26.2"/>
<polygon fill="black" stroke="black" points="323.28,-29.66 332.8,-25.03 322.46,-22.71 323.28,-29.66"/>
</g>
<!-- libboost_regex.so.1.77.0 -->
<g id="node3" class="node">
<title>libboost_regex.so.1.77.0</title>
<polygon fill="none" stroke="black" points="869.5,-468 678.5,-468 678.5,-432 869.5,-432 869.5,-468"/>
<text text-anchor="middle" x="774" y="-446.3" font-family="Times,serif" font-size="14.00">libboost_regex.so.1.77.0</text>
</g>
<!-- gdb&#45;&gt;libboost_regex.so.1.77.0 -->
<g id="edge2" class="edge">
<title>gdb&#45;&gt;libboost_regex.so.1.77.0</title>
<path fill="none" stroke="black" d="M1217.86,-593.79C1155.88,-594.61 1000.33,-590.98 884,-540 849.73,-524.98 817.31,-496.34 796.66,-475.59"/>
<polygon fill="black" stroke="black" points="799.09,-473.07 789.6,-468.34 794.07,-477.95 799.09,-473.07"/>
</g>
<!-- libcrypt.so.1 -->
<g id="node4" class="node">
<title>libcrypt.so.1</title>
<polygon fill="none" stroke="black" points="1706,-180 1600,-180 1600,-144 1706,-144 1706,-180"/>
<text text-anchor="middle" x="1653" y="-158.3" font-family="Times,serif" font-size="14.00">libcrypt.so.1</text>
</g>
<!-- gdb&#45;&gt;libcrypt.so.1 -->
<g id="edge3" class="edge">
<title>gdb&#45;&gt;libcrypt.so.1</title>
<path fill="none" stroke="black" d="M1272.03,-593.52C1335.32,-593.84 1497.03,-589.32 1620,-540 1682.96,-514.75 1744,-518.84 1744,-451 1744,-451 1744,-451 1744,-305 1744,-264.55 1746.94,-249.98 1725,-216 1717.28,-204.04 1705.84,-193.84 1694.35,-185.69"/>
<polygon fill="black" stroke="black" points="1696.28,-182.77 1686.02,-180.11 1692.39,-188.58 1696.28,-182.77"/>
</g>
<!-- libc.so.6 -->
<g id="node5" class="node">
<title>libc.so.6</title>
<polygon fill="none" stroke="black" points="1134,-108 1058,-108 1058,-72 1134,-72 1134,-108"/>
<text text-anchor="middle" x="1096" y="-86.3" font-family="Times,serif" font-size="14.00">libc.so.6</text>
</g>
<!-- gdb&#45;&gt;libc.so.6 -->
<g id="edge4" class="edge">
<title>gdb&#45;&gt;libc.so.6</title>
<path fill="none" stroke="black" d="M1267.27,-575.84C1278.38,-566.3 1291.28,-553.63 1300,-540 1340.6,-476.52 1423.51,-287.59 1400,-216 1387.6,-178.25 1380.41,-165.51 1347,-144 1284.87,-103.98 1197.82,-93.58 1144.27,-91.21"/>
<polygon fill="black" stroke="black" points="1144.14,-87.7 1134.02,-90.83 1143.89,-94.69 1144.14,-87.7"/>
</g>
<!-- libdl.so.2 -->
<g id="node6" class="node">
<title>libdl.so.2</title>
<polygon fill="none" stroke="black" points="1806,-180 1724,-180 1724,-144 1806,-144 1806,-180"/>
<text text-anchor="middle" x="1765" y="-158.3" font-family="Times,serif" font-size="14.00">libdl.so.2</text>
</g>
<!-- gdb&#45;&gt;libdl.so.2 -->
<g id="edge5" class="edge">
<title>gdb&#45;&gt;libdl.so.2</title>
<path fill="none" stroke="black" d="M1272.29,-591.87C1356.3,-588.04 1609.82,-573.91 1684,-540 1737.51,-515.54 1782,-509.84 1782,-451 1782,-451 1782,-451 1782,-305 1782,-264.93 1775.24,-218.95 1770.25,-190.43"/>
<polygon fill="black" stroke="black" points="1773.66,-189.63 1768.44,-180.41 1766.77,-190.87 1773.66,-189.63"/>
</g>
<!-- libexpat.so.1 -->
<g id="node7" class="node">
<title>libexpat.so.1</title>
<polygon fill="none" stroke="black" points="174,-252 66,-252 66,-216 174,-216 174,-252"/>
<text text-anchor="middle" x="120" y="-230.3" font-family="Times,serif" font-size="14.00">libexpat.so.1</text>
</g>
<!-- gdb&#45;&gt;libexpat.so.1 -->
<g id="edge6" class="edge">
<title>gdb&#45;&gt;libexpat.so.1</title>
<path fill="none" stroke="black" d="M1217.89,-592.25C1083.19,-588.42 489.4,-569.92 413,-540 273.83,-485.5 170.74,-324.84 134.33,-261.3"/>
<polygon fill="black" stroke="black" points="137.22,-259.3 129.26,-252.31 131.13,-262.74 137.22,-259.3"/>
</g>
<!-- libgcc_s.so.1 -->
<g id="node8" class="node">
<title>libgcc_s.so.1</title>
<polygon fill="none" stroke="black" points="1149.5,-180 1042.5,-180 1042.5,-144 1149.5,-144 1149.5,-180"/>
<text text-anchor="middle" x="1096" y="-158.3" font-family="Times,serif" font-size="14.00">libgcc_s.so.1</text>
</g>
<!-- gdb&#45;&gt;libgcc_s.so.1 -->
<g id="edge7" class="edge">
<title>gdb&#45;&gt;libgcc_s.so.1</title>
<path fill="none" stroke="black" d="M1241.16,-575.61C1235.6,-548.94 1226,-496.27 1226,-451 1226,-451 1226,-451 1226,-377 1226,-298.67 1161.6,-224.59 1123.45,-187.58"/>
<polygon fill="black" stroke="black" points="1125.4,-184.61 1115.74,-180.26 1120.58,-189.68 1125.4,-184.61"/>
</g>
<!-- libgmp.so.10 -->
<g id="node9" class="node">
<title>libgmp.so.10</title>
<polygon fill="none" stroke="black" points="1315.5,-180 1206.5,-180 1206.5,-144 1315.5,-144 1315.5,-180"/>
<text text-anchor="middle" x="1261" y="-158.3" font-family="Times,serif" font-size="14.00">libgmp.so.10</text>
</g>
<!-- gdb&#45;&gt;libgmp.so.10 -->
<g id="edge8" class="edge">
<title>gdb&#45;&gt;libgmp.so.10</title>
<path fill="none" stroke="black" d="M1248.84,-575.61C1254.4,-548.94 1264,-496.27 1264,-451 1264,-451 1264,-451 1264,-377 1264,-309.95 1262.51,-231.09 1261.63,-190.39"/>
<polygon fill="black" stroke="black" points="1265.12,-190.12 1261.4,-180.2 1258.13,-190.27 1265.12,-190.12"/>
</g>
<!-- libipt.so.2 -->
<g id="node10" class="node">
<title>libipt.so.2</title>
<polygon fill="none" stroke="black" points="432,-324 344,-324 344,-288 432,-288 432,-324"/>
<text text-anchor="middle" x="388" y="-302.3" font-family="Times,serif" font-size="14.00">libipt.so.2</text>
</g>
<!-- gdb&#45;&gt;libipt.so.2 -->
<g id="edge9" class="edge">
<title>gdb&#45;&gt;libipt.so.2</title>
<path fill="none" stroke="black" d="M1217.58,-593.06C1084.1,-593.12 506.32,-590.45 446,-540 384.78,-488.8 382.69,-383.86 385.53,-334.2"/>
<polygon fill="black" stroke="black" points="389.02,-334.42 386.21,-324.21 382.04,-333.95 389.02,-334.42"/>
</g>
<!-- libmpfr.so.6 -->
<g id="node11" class="node">
<title>libmpfr.so.6</title>
<polygon fill="none" stroke="black" points="1391.5,-252 1290.5,-252 1290.5,-216 1391.5,-216 1391.5,-252"/>
<text text-anchor="middle" x="1341" y="-230.3" font-family="Times,serif" font-size="14.00">libmpfr.so.6</text>
</g>
<!-- gdb&#45;&gt;libmpfr.so.6 -->
<g id="edge10" class="edge">
<title>gdb&#45;&gt;libmpfr.so.6</title>
<path fill="none" stroke="black" d="M1257.67,-575.57C1264.47,-565.56 1272.55,-552.52 1278,-540 1294.34,-502.43 1302,-491.97 1302,-451 1302,-451 1302,-451 1302,-377 1302,-335.56 1317.64,-289.67 1329.11,-261.58"/>
<polygon fill="black" stroke="black" points="1332.45,-262.65 1333.11,-252.07 1326,-259.93 1332.45,-262.65"/>
</g>
<!-- libm.so.6 -->
<g id="node12" class="node">
<title>libm.so.6</title>
<polygon fill="none" stroke="black" points="326,-180 244,-180 244,-144 326,-144 326,-180"/>
<text text-anchor="middle" x="285" y="-158.3" font-family="Times,serif" font-size="14.00">libm.so.6</text>
</g>
<!-- gdb&#45;&gt;libm.so.6 -->
<g id="edge11" class="edge">
<title>gdb&#45;&gt;libm.so.6</title>
<path fill="none" stroke="black" d="M1217.91,-592.74C1076.31,-591.19 424.69,-581.84 346,-540 249.03,-488.44 233.57,-433.56 226,-324 222.64,-275.38 223.7,-259.84 245,-216 249.76,-206.2 256.46,-196.41 263.01,-187.97"/>
<polygon fill="black" stroke="black" points="265.88,-189.99 269.44,-180.01 260.43,-185.59 265.88,-189.99"/>
</g>
<!-- libncursesw.so.6 -->
<g id="node13" class="node">
<title>libncursesw.so.6</title>
<polygon fill="none" stroke="black" points="1502,-468 1368,-468 1368,-432 1502,-432 1502,-468"/>
<text text-anchor="middle" x="1435" y="-446.3" font-family="Times,serif" font-size="14.00">libncursesw.so.6</text>
</g>
<!-- gdb&#45;&gt;libncursesw.so.6 -->
<g id="edge12" class="edge">
<title>gdb&#45;&gt;libncursesw.so.6</title>
<path fill="none" stroke="black" d="M1272.13,-583.17C1295.21,-574.06 1328.56,-559.04 1354,-540 1378.33,-521.79 1401.17,-495.54 1416.35,-476.26"/>
<polygon fill="black" stroke="black" points="1419.22,-478.26 1422.57,-468.21 1413.68,-473.99 1419.22,-478.26"/>
</g>
<!-- libpthread.so.0 -->
<g id="node14" class="node">
<title>libpthread.so.0</title>
<polygon fill="none" stroke="black" points="507.5,-252 382.5,-252 382.5,-216 507.5,-216 507.5,-252"/>
<text text-anchor="middle" x="445" y="-230.3" font-family="Times,serif" font-size="14.00">libpthread.so.0</text>
</g>
<!-- gdb&#45;&gt;libpthread.so.0 -->
<g id="edge13" class="edge">
<title>gdb&#45;&gt;libpthread.so.0</title>
<path fill="none" stroke="black" d="M1217.98,-591.04C1079.94,-580.68 460,-529.77 460,-451 460,-451 460,-451 460,-377 460,-336.99 454.04,-291 449.63,-262.46"/>
<polygon fill="black" stroke="black" points="453.06,-261.75 448.04,-252.43 446.15,-262.85 453.06,-261.75"/>
</g>
<!-- libpython3.9.so.1.0 -->
<g id="node15" class="node">
<title>libpython3.9.so.1.0</title>
<polygon fill="none" stroke="black" points="1716,-252 1562,-252 1562,-216 1716,-216 1716,-252"/>
<text text-anchor="middle" x="1639" y="-230.3" font-family="Times,serif" font-size="14.00">libpython3.9.so.1.0</text>
</g>
<!-- gdb&#45;&gt;libpython3.9.so.1.0 -->
<g id="edge14" class="edge">
<title>gdb&#45;&gt;libpython3.9.so.1.0</title>
<path fill="none" stroke="black" d="M1272,-590.75C1340.5,-584.72 1519.32,-566.78 1572,-540 1622.15,-514.51 1662,-507.26 1662,-451 1662,-451 1662,-451 1662,-377 1662,-336.7 1652.86,-290.78 1646.1,-262.34"/>
<polygon fill="black" stroke="black" points="1649.43,-261.22 1643.65,-252.34 1642.63,-262.89 1649.43,-261.22"/>
</g>
<!-- libreadline.so.8 -->
<g id="node16" class="node">
<title>libreadline.so.8</title>
<polygon fill="none" stroke="black" points="1533.5,-540 1406.5,-540 1406.5,-504 1533.5,-504 1533.5,-540"/>
<text text-anchor="middle" x="1470" y="-518.3" font-family="Times,serif" font-size="14.00">libreadline.so.8</text>
</g>
<!-- gdb&#45;&gt;libreadline.so.8 -->
<g id="edge15" class="edge">
<title>gdb&#45;&gt;libreadline.so.8</title>
<path fill="none" stroke="black" d="M1272.14,-584.56C1304.96,-574.35 1361.28,-556.82 1405.46,-543.08"/>
<polygon fill="black" stroke="black" points="1406.75,-546.34 1415.26,-540.03 1404.67,-539.66 1406.75,-546.34"/>
</g>
<!-- libsource&#45;highlight.so.4 -->
<g id="node17" class="node">
<title>libsource&#45;highlight.so.4</title>
<polygon fill="none" stroke="black" points="1198.5,-540 1013.5,-540 1013.5,-504 1198.5,-504 1198.5,-540"/>
<text text-anchor="middle" x="1106" y="-518.3" font-family="Times,serif" font-size="14.00">libsource&#45;highlight.so.4</text>
</g>
<!-- gdb&#45;&gt;libsource&#45;highlight.so.4 -->
<g id="edge16" class="edge">
<title>gdb&#45;&gt;libsource&#45;highlight.so.4</title>
<path fill="none" stroke="black" d="M1217.87,-579.34C1198.29,-569.48 1171.45,-555.96 1148.97,-544.64"/>
<polygon fill="black" stroke="black" points="1150.46,-541.47 1139.95,-540.1 1147.31,-547.72 1150.46,-541.47"/>
</g>
<!-- libstdc++.so.6 -->
<g id="node18" class="node">
<title>libstdc++.so.6</title>
<polygon fill="none" stroke="black" points="910,-252 788,-252 788,-216 910,-216 910,-252"/>
<text text-anchor="middle" x="849" y="-230.3" font-family="Times,serif" font-size="14.00">libstdc++.so.6</text>
</g>
<!-- gdb&#45;&gt;libstdc++.so.6 -->
<g id="edge17" class="edge">
<title>gdb&#45;&gt;libstdc++.so.6</title>
<path fill="none" stroke="black" d="M1217.95,-591.27C1171.85,-587.42 1076.07,-575.48 1004,-540 948.81,-512.83 898,-512.52 898,-451 898,-451 898,-451 898,-377 898,-334.78 878.4,-289.16 863.99,-261.33"/>
<polygon fill="black" stroke="black" points="866.95,-259.44 859.15,-252.27 860.77,-262.74 866.95,-259.44"/>
</g>
<!-- libz.so.1 -->
<g id="node19" class="node">
<title>libz.so.1</title>
<polygon fill="none" stroke="black" points="1634,-468 1558,-468 1558,-432 1634,-432 1634,-468"/>
<text text-anchor="middle" x="1596" y="-446.3" font-family="Times,serif" font-size="14.00">libz.so.1</text>
</g>
<!-- gdb&#45;&gt;libz.so.1 -->
<g id="edge18" class="edge">
<title>gdb&#45;&gt;libz.so.1</title>
<path fill="none" stroke="black" d="M1272.28,-590.99C1337.09,-585.77 1498.15,-570.06 1542,-540 1563.9,-524.98 1578.46,-497.88 1586.88,-477.51"/>
<polygon fill="black" stroke="black" points="1590.16,-478.73 1590.52,-468.14 1583.64,-476.19 1590.16,-478.73"/>
</g>
<!-- libboost_regex.so.1.77.0&#45;&gt;libc.so.6 -->
<g id="edge19" class="edge">
<title>libboost_regex.so.1.77.0&#45;&gt;libc.so.6</title>
<path fill="none" stroke="black" d="M811.04,-431.91C827.93,-422.88 847.37,-410.62 862,-396 954.52,-303.54 922.96,-237.91 1014,-144 1025.42,-132.22 1039.93,-121.77 1053.56,-113.33"/>
<polygon fill="black" stroke="black" points="1055.55,-116.21 1062.34,-108.08 1051.96,-110.2 1055.55,-116.21"/>
</g>
<!-- libboost_regex.so.1.77.0&#45;&gt;libgcc_s.so.1 -->
<g id="edge20" class="edge">
<title>libboost_regex.so.1.77.0&#45;&gt;libgcc_s.so.1</title>
<path fill="none" stroke="black" d="M869.86,-442.33C940.48,-435.37 1028.49,-421.74 1054,-396 1109.02,-340.5 1105.48,-238.93 1100.02,-190.32"/>
<polygon fill="black" stroke="black" points="1103.47,-189.74 1098.77,-180.25 1096.53,-190.6 1103.47,-189.74"/>
</g>
<!-- libboost_regex.so.1.77.0&#45;&gt;libm.so.6 -->
<g id="edge24" class="edge">
<title>libboost_regex.so.1.77.0&#45;&gt;libm.so.6</title>
<path fill="none" stroke="black" d="M678.3,-434.67C558.51,-414.83 362.84,-375.54 312,-324 277.1,-288.62 277.34,-226.16 280.96,-190.33"/>
<polygon fill="black" stroke="black" points="284.47,-190.46 282.16,-180.12 277.52,-189.65 284.47,-190.46"/>
</g>
<!-- libboost_regex.so.1.77.0&#45;&gt;libpthread.so.0 -->
<g id="edge25" class="edge">
<title>libboost_regex.so.1.77.0&#45;&gt;libpthread.so.0</title>
<path fill="none" stroke="black" d="M715.93,-431.94C658.89,-412.91 571.94,-377.57 512,-324 491.33,-305.53 472.81,-279.85 460.51,-260.82"/>
<polygon fill="black" stroke="black" points="463.44,-258.92 455.14,-252.33 457.53,-262.66 463.44,-258.92"/>
</g>
<!-- libboost_regex.so.1.77.0&#45;&gt;libstdc++.so.6 -->
<g id="edge27" class="edge">
<title>libboost_regex.so.1.77.0&#45;&gt;libstdc++.so.6</title>
<path fill="none" stroke="black" d="M806.18,-431.81C819.37,-422.97 833.33,-410.9 841,-396 862.97,-353.34 859.1,-295.61 854.15,-262.13"/>
<polygon fill="black" stroke="black" points="857.59,-261.47 852.53,-252.16 850.68,-262.59 857.59,-261.47"/>
</g>
<!-- libicudata.so.71 -->
<g id="node20" class="node">
<title>libicudata.so.71</title>
<polygon fill="none" stroke="black" points="770,-252 640,-252 640,-216 770,-216 770,-252"/>
<text text-anchor="middle" x="705" y="-230.3" font-family="Times,serif" font-size="14.00">libicudata.so.71</text>
</g>
<!-- libboost_regex.so.1.77.0&#45;&gt;libicudata.so.71 -->
<g id="edge21" class="edge">
<title>libboost_regex.so.1.77.0&#45;&gt;libicudata.so.71</title>
<path fill="none" stroke="black" d="M731.89,-431.87C716.82,-423.45 701.47,-411.67 693,-396 680.88,-373.58 692.03,-301.79 699.51,-262.07"/>
<polygon fill="black" stroke="black" points="702.99,-262.5 701.45,-252.01 696.12,-261.17 702.99,-262.5"/>
</g>
<!-- libicui18n.so.71 -->
<g id="node21" class="node">
<title>libicui18n.so.71</title>
<polygon fill="none" stroke="black" points="832,-396 702,-396 702,-360 832,-360 832,-396"/>
<text text-anchor="middle" x="767" y="-374.3" font-family="Times,serif" font-size="14.00">libicui18n.so.71</text>
</g>
<!-- libboost_regex.so.1.77.0&#45;&gt;libicui18n.so.71 -->
<g id="edge22" class="edge">
<title>libboost_regex.so.1.77.0&#45;&gt;libicui18n.so.71</title>
<path fill="none" stroke="black" d="M772.27,-431.7C771.5,-423.98 770.57,-414.71 769.71,-406.11"/>
<polygon fill="black" stroke="black" points="773.19,-405.71 768.71,-396.1 766.22,-406.4 773.19,-405.71"/>
</g>
<!-- libicuuc.so.71 -->
<g id="node22" class="node">
<title>libicuuc.so.71</title>
<polygon fill="none" stroke="black" points="679.5,-324 564.5,-324 564.5,-288 679.5,-288 679.5,-324"/>
<text text-anchor="middle" x="622" y="-302.3" font-family="Times,serif" font-size="14.00">libicuuc.so.71</text>
</g>
<!-- libboost_regex.so.1.77.0&#45;&gt;libicuuc.so.71 -->
<g id="edge23" class="edge">
<title>libboost_regex.so.1.77.0&#45;&gt;libicuuc.so.71</title>
<path fill="none" stroke="black" d="M716.69,-431.9C696.74,-423.65 675.49,-411.99 660,-396 643.35,-378.82 633.47,-353.21 627.97,-333.87"/>
<polygon fill="black" stroke="black" points="631.34,-332.92 625.42,-324.13 624.57,-334.69 631.34,-332.92"/>
</g>
<!-- librt.so.1 -->
<g id="node23" class="node">
<title>librt.so.1</title>
<polygon fill="none" stroke="black" points="1045.5,-396 964.5,-396 964.5,-360 1045.5,-360 1045.5,-396"/>
<text text-anchor="middle" x="1005" y="-374.3" font-family="Times,serif" font-size="14.00">librt.so.1</text>
</g>
<!-- libboost_regex.so.1.77.0&#45;&gt;librt.so.1 -->
<g id="edge26" class="edge">
<title>libboost_regex.so.1.77.0&#45;&gt;librt.so.1</title>
<path fill="none" stroke="black" d="M831.1,-431.92C865.56,-421.58 910.32,-408.11 950,-396 951.61,-395.51 953.25,-395.01 954.9,-394.5"/>
<polygon fill="black" stroke="black" points="955.93,-397.85 964.46,-391.57 953.87,-391.16 955.93,-397.85"/>
</g>
<!-- libcrypt.so.1&#45;&gt;libc.so.6 -->
<g id="edge28" class="edge">
<title>libcrypt.so.1&#45;&gt;libc.so.6</title>
<path fill="none" stroke="black" d="M1599.75,-146.77C1595.12,-145.75 1590.49,-144.81 1586,-144 1425.57,-115.12 1232.56,-99.87 1144.3,-93.96"/>
<polygon fill="black" stroke="black" points="1144.28,-90.45 1134.07,-93.29 1143.82,-97.44 1144.28,-90.45"/>
</g>
<!-- libc.so.6&#45;&gt;ld&#45;linux&#45;x86&#45;64.so.2 -->
<g id="edge29" class="edge">
<title>libc.so.6&#45;&gt;ld&#45;linux&#45;x86&#45;64.so.2</title>
<path fill="none" stroke="black" d="M1057.7,-85.09C951.32,-74.22 650.14,-43.44 499.33,-28.03"/>
<polygon fill="black" stroke="black" points="499.48,-24.52 489.18,-26.99 498.77,-31.49 499.48,-24.52"/>
</g>
<!-- libdl.so.2&#45;&gt;libc.so.6 -->
<g id="edge30" class="edge">
<title>libdl.so.2&#45;&gt;libc.so.6</title>
<path fill="none" stroke="black" d="M1723.74,-146.11C1720.81,-145.32 1717.87,-144.6 1715,-144 1505.78,-100.15 1249.5,-92.43 1144.43,-91.18"/>
<polygon fill="black" stroke="black" points="1144.18,-87.68 1134.15,-91.07 1144.11,-94.68 1144.18,-87.68"/>
</g>
<!-- libexpat.so.1&#45;&gt;libc.so.6 -->
<g id="edge31" class="edge">
<title>libexpat.so.1&#45;&gt;libc.so.6</title>
<path fill="none" stroke="black" d="M135.54,-215.85C155.98,-194.62 194.13,-159.39 235,-144 311.06,-115.36 877.23,-97.18 1047.62,-92.32"/>
<polygon fill="black" stroke="black" points="1047.9,-95.81 1057.8,-92.03 1047.7,-88.81 1047.9,-95.81"/>
</g>
<!-- libexpat.so.1&#45;&gt;libm.so.6 -->
<g id="edge32" class="edge">
<title>libexpat.so.1&#45;&gt;libm.so.6</title>
<path fill="none" stroke="black" d="M160.36,-215.88C183.02,-206.26 211.47,-194.19 235.47,-184.01"/>
<polygon fill="black" stroke="black" points="236.93,-187.2 244.77,-180.07 234.19,-180.75 236.93,-187.2"/>
</g>
<!-- libgcc_s.so.1&#45;&gt;libc.so.6 -->
<g id="edge33" class="edge">
<title>libgcc_s.so.1&#45;&gt;libc.so.6</title>
<path fill="none" stroke="black" d="M1096,-143.7C1096,-135.98 1096,-126.71 1096,-118.11"/>
<polygon fill="black" stroke="black" points="1099.5,-118.1 1096,-108.1 1092.5,-118.1 1099.5,-118.1"/>
</g>
<!-- libgmp.so.10&#45;&gt;libc.so.6 -->
<g id="edge34" class="edge">
<title>libgmp.so.10&#45;&gt;libc.so.6</title>
<path fill="none" stroke="black" d="M1220.64,-143.88C1197.39,-134.01 1168.04,-121.56 1143.67,-111.22"/>
<polygon fill="black" stroke="black" points="1144.82,-107.91 1134.25,-107.23 1142.09,-114.35 1144.82,-107.91"/>
</g>
<!-- libipt.so.2&#45;&gt;libc.so.6 -->
<g id="edge49" class="edge">
<title>libipt.so.2&#45;&gt;libc.so.6</title>
<path fill="none" stroke="black" d="M378.74,-287.73C370.01,-268.87 360.02,-238.36 373,-216 405.37,-160.21 437.46,-163.3 499,-144 601.02,-112.01 923.98,-97.23 1047.4,-92.64"/>
<polygon fill="black" stroke="black" points="1047.81,-96.13 1057.67,-92.26 1047.55,-89.13 1047.81,-96.13"/>
</g>
<!-- libipt.so.2&#45;&gt;libpthread.so.0 -->
<g id="edge50" class="edge">
<title>libipt.so.2&#45;&gt;libpthread.so.0</title>
<path fill="none" stroke="black" d="M402.09,-287.7C408.92,-279.3 417.26,-269.07 424.76,-259.86"/>
<polygon fill="black" stroke="black" points="427.47,-262.07 431.07,-252.1 422.04,-257.65 427.47,-262.07"/>
</g>
<!-- libmpfr.so.6&#45;&gt;ld&#45;linux&#45;x86&#45;64.so.2 -->
<g id="edge51" class="edge">
<title>libmpfr.so.6&#45;&gt;ld&#45;linux&#45;x86&#45;64.so.2</title>
<path fill="none" stroke="black" d="M1348.09,-215.86C1354.83,-196.55 1361.94,-165.11 1347,-144 1291.47,-65.51 1237.12,-91.65 1143,-72 1022.43,-46.83 666.5,-29.45 499.46,-22.45"/>
<polygon fill="black" stroke="black" points="499.35,-18.94 489.22,-22.02 499.06,-25.94 499.35,-18.94"/>
</g>
<!-- libmpfr.so.6&#45;&gt;libc.so.6 -->
<g id="edge52" class="edge">
<title>libmpfr.so.6&#45;&gt;libc.so.6</title>
<path fill="none" stroke="black" d="M1342.83,-215.79C1343.93,-195.81 1342.42,-163.17 1324,-144 1299.63,-118.64 1203.96,-103.34 1144.57,-96.1"/>
<polygon fill="black" stroke="black" points="1144.63,-92.58 1134.29,-94.88 1143.8,-99.53 1144.63,-92.58"/>
</g>
<!-- libmpfr.so.6&#45;&gt;libgmp.so.10 -->
<g id="edge53" class="edge">
<title>libmpfr.so.6&#45;&gt;libgmp.so.10</title>
<path fill="none" stroke="black" d="M1321.22,-215.7C1311.25,-206.97 1298.99,-196.24 1288.14,-186.75"/>
<polygon fill="black" stroke="black" points="1290.38,-184.06 1280.55,-180.1 1285.77,-189.32 1290.38,-184.06"/>
</g>
<!-- libm.so.6&#45;&gt;ld&#45;linux&#45;x86&#45;64.so.2 -->
<g id="edge54" class="edge">
<title>libm.so.6&#45;&gt;ld&#45;linux&#45;x86&#45;64.so.2</title>
<path fill="none" stroke="black" d="M300.2,-143.87C322.34,-118.92 363.57,-72.45 389.02,-43.77"/>
<polygon fill="black" stroke="black" points="391.73,-45.99 395.75,-36.19 386.49,-41.35 391.73,-45.99"/>
</g>
<!-- libm.so.6&#45;&gt;libc.so.6 -->
<g id="edge55" class="edge">
<title>libm.so.6&#45;&gt;libc.so.6</title>
<path fill="none" stroke="black" d="M326.19,-147.16C330.81,-145.94 335.48,-144.85 340,-144 603.9,-94.65 927.42,-90.3 1047.85,-90.56"/>
<polygon fill="black" stroke="black" points="1047.84,-94.06 1057.85,-90.6 1047.86,-87.06 1047.84,-94.06"/>
</g>
<!-- libncursesw.so.6&#45;&gt;libc.so.6 -->
<g id="edge56" class="edge">
<title>libncursesw.so.6&#45;&gt;libc.so.6</title>
<path fill="none" stroke="black" d="M1439.65,-431.66C1446.38,-405.05 1458,-352.45 1458,-307 1458,-307 1458,-307 1458,-233 1458,-192.03 1464.49,-171.37 1434,-144 1392.14,-106.43 1227.21,-95.44 1144.23,-92.27"/>
<polygon fill="black" stroke="black" points="1144.16,-88.76 1134.05,-91.9 1143.91,-95.76 1144.16,-88.76"/>
</g>
<!-- libpthread.so.0&#45;&gt;libc.so.6 -->
<g id="edge57" class="edge">
<title>libpthread.so.0&#45;&gt;libc.so.6</title>
<path fill="none" stroke="black" d="M460.99,-215.73C481.61,-194.71 519.65,-160.05 560,-144 648.15,-108.93 933.31,-96.16 1047.79,-92.37"/>
<polygon fill="black" stroke="black" points="1048.12,-95.86 1058,-92.04 1047.89,-88.86 1048.12,-95.86"/>
</g>
<!-- libpython3.9.so.1.0&#45;&gt;libcrypt.so.1 -->
<g id="edge58" class="edge">
<title>libpython3.9.so.1.0&#45;&gt;libcrypt.so.1</title>
<path fill="none" stroke="black" d="M1642.46,-215.7C1644,-207.98 1645.86,-198.71 1647.58,-190.11"/>
<polygon fill="black" stroke="black" points="1651.05,-190.6 1649.58,-180.1 1644.19,-189.22 1651.05,-190.6"/>
</g>
<!-- libpython3.9.so.1.0&#45;&gt;libc.so.6 -->
<g id="edge59" class="edge">
<title>libpython3.9.so.1.0&#45;&gt;libc.so.6</title>
<path fill="none" stroke="black" d="M1623.75,-215.61C1602.81,-192.19 1565.75,-152.48 1548,-144 1477.5,-110.34 1246.21,-97.06 1144.6,-92.75"/>
<polygon fill="black" stroke="black" points="1144.45,-89.25 1134.32,-92.33 1144.16,-96.24 1144.45,-89.25"/>
</g>
<!-- libpython3.9.so.1.0&#45;&gt;libdl.so.2 -->
<g id="edge60" class="edge">
<title>libpython3.9.so.1.0&#45;&gt;libdl.so.2</title>
<path fill="none" stroke="black" d="M1669.82,-215.88C1686.45,-206.64 1707.16,-195.13 1725.02,-185.21"/>
<polygon fill="black" stroke="black" points="1727.02,-188.11 1734.06,-180.19 1723.62,-181.99 1727.02,-188.11"/>
</g>
<!-- libpython3.9.so.1.0&#45;&gt;libgcc_s.so.1 -->
<g id="edge61" class="edge">
<title>libpython3.9.so.1.0&#45;&gt;libgcc_s.so.1</title>
<path fill="none" stroke="black" d="M1561.8,-224.87C1473.47,-215.3 1324.56,-198.37 1197,-180 1184.97,-178.27 1172.16,-176.25 1159.85,-174.22"/>
<polygon fill="black" stroke="black" points="1160.09,-170.71 1149.65,-172.52 1158.94,-177.61 1160.09,-170.71"/>
</g>
<!-- libpython3.9.so.1.0&#45;&gt;libm.so.6 -->
<g id="edge62" class="edge">
<title>libpython3.9.so.1.0&#45;&gt;libm.so.6</title>
<path fill="none" stroke="black" d="M1561.8,-227.05C1515,-223.55 1454.09,-219.21 1400,-216 990.1,-191.68 494.92,-171.31 336.41,-165.01"/>
<polygon fill="black" stroke="black" points="336.15,-161.5 326.02,-164.6 335.88,-168.49 336.15,-161.5"/>
</g>
<!-- libreadline.so.8&#45;&gt;libc.so.6 -->
<g id="edge63" class="edge">
<title>libreadline.so.8&#45;&gt;libc.so.6</title>
<path fill="none" stroke="black" d="M1488.17,-503.68C1496.88,-494.1 1506.41,-481.43 1511,-468 1516.17,-452.86 1511.95,-447.97 1511,-432 1507.66,-376.15 1496,-362.95 1496,-307 1496,-307 1496,-307 1496,-233 1496,-190.33 1493.56,-170.35 1460,-144 1411.85,-106.2 1231.69,-95.29 1144.23,-92.2"/>
<polygon fill="black" stroke="black" points="1144.15,-88.69 1134.04,-91.86 1143.92,-95.69 1144.15,-88.69"/>
</g>
<!-- libreadline.so.8&#45;&gt;libncursesw.so.6 -->
<g id="edge64" class="edge">
<title>libreadline.so.8&#45;&gt;libncursesw.so.6</title>
<path fill="none" stroke="black" d="M1461.35,-503.7C1457.36,-495.73 1452.55,-486.1 1448.13,-477.26"/>
<polygon fill="black" stroke="black" points="1451.15,-475.48 1443.55,-468.1 1444.89,-478.61 1451.15,-475.48"/>
</g>
<!-- libsource&#45;highlight.so.4&#45;&gt;libboost_regex.so.1.77.0 -->
<g id="edge66" class="edge">
<title>libsource&#45;highlight.so.4&#45;&gt;libboost_regex.so.1.77.0</title>
<path fill="none" stroke="black" d="M1025.21,-503.97C976.71,-493.74 914.91,-480.71 864.74,-470.13"/>
<polygon fill="black" stroke="black" points="865.37,-466.69 854.87,-468.05 863.93,-473.54 865.37,-466.69"/>
</g>
<!-- libsource&#45;highlight.so.4&#45;&gt;libc.so.6 -->
<g id="edge67" class="edge">
<title>libsource&#45;highlight.so.4&#45;&gt;libc.so.6</title>
<path fill="none" stroke="black" d="M1114.7,-503.87C1141.43,-448.75 1217.03,-272.12 1158,-144 1152.68,-132.44 1143.45,-122.47 1133.72,-114.4"/>
<polygon fill="black" stroke="black" points="1135.56,-111.39 1125.5,-108.06 1131.29,-116.94 1135.56,-111.39"/>
</g>
<!-- libsource&#45;highlight.so.4&#45;&gt;libgcc_s.so.1 -->
<g id="edge68" class="edge">
<title>libsource&#45;highlight.so.4&#45;&gt;libgcc_s.so.1</title>
<path fill="none" stroke="black" d="M1107.12,-503.82C1107.76,-493.45 1108.52,-479.97 1109,-468 1112.83,-372.05 1112.89,-348.02 1114,-252 1114.19,-236 1116.61,-231.79 1114,-216 1112.56,-207.28 1109.87,-198.06 1107,-189.8"/>
<polygon fill="black" stroke="black" points="1110.23,-188.46 1103.48,-180.3 1103.67,-190.89 1110.23,-188.46"/>
</g>
<!-- libsource&#45;highlight.so.4&#45;&gt;libm.so.6 -->
<g id="edge69" class="edge">
<title>libsource&#45;highlight.so.4&#45;&gt;libm.so.6</title>
<path fill="none" stroke="black" d="M1013.32,-515.42C789.92,-500.74 240,-456.7 240,-379 240,-379 240,-379 240,-305 240,-263.13 258,-217.42 271.23,-189.48"/>
<polygon fill="black" stroke="black" points="274.44,-190.89 275.68,-180.37 268.15,-187.82 274.44,-190.89"/>
</g>
<!-- libsource&#45;highlight.so.4&#45;&gt;libstdc++.so.6 -->
<g id="edge70" class="edge">
<title>libsource&#45;highlight.so.4&#45;&gt;libstdc++.so.6</title>
<path fill="none" stroke="black" d="M1104.39,-503.9C1100.65,-472.35 1088.83,-404.17 1054,-360 1015.12,-310.7 951.02,-276.14 904.84,-256.04"/>
<polygon fill="black" stroke="black" points="906.14,-252.79 895.57,-252.1 903.4,-259.23 906.14,-252.79"/>
</g>
<!-- libstdc++.so.6&#45;&gt;ld&#45;linux&#45;x86&#45;64.so.2 -->
<g id="edge71" class="edge">
<title>libstdc++.so.6&#45;&gt;ld&#45;linux&#45;x86&#45;64.so.2</title>
<path fill="none" stroke="black" d="M813.9,-215.85C734.67,-177.14 542.13,-83.07 455.05,-40.52"/>
<polygon fill="black" stroke="black" points="456.49,-37.33 445.97,-36.08 453.41,-43.62 456.49,-37.33"/>
</g>
<!-- libstdc++.so.6&#45;&gt;libc.so.6 -->
<g id="edge72" class="edge">
<title>libstdc++.so.6&#45;&gt;libc.so.6</title>
<path fill="none" stroke="black" d="M859.23,-215.68C871.96,-195.6 895.53,-162.85 924,-144 961.63,-119.09 1011.54,-105.42 1047.9,-98.23"/>
<polygon fill="black" stroke="black" points="1048.6,-101.66 1057.78,-96.37 1047.3,-94.78 1048.6,-101.66"/>
</g>
<!-- libstdc++.so.6&#45;&gt;libgcc_s.so.1 -->
<g id="edge73" class="edge">
<title>libstdc++.so.6&#45;&gt;libgcc_s.so.1</title>
<path fill="none" stroke="black" d="M909.11,-215.97C946.47,-205.38 994.44,-191.78 1032.43,-181.01"/>
<polygon fill="black" stroke="black" points="1033.7,-184.29 1042.36,-178.2 1031.79,-177.56 1033.7,-184.29"/>
</g>
<!-- libstdc++.so.6&#45;&gt;libm.so.6 -->
<g id="edge74" class="edge">
<title>libstdc++.so.6&#45;&gt;libm.so.6</title>
<path fill="none" stroke="black" d="M787.64,-217.59C784.73,-217.02 781.84,-216.48 779,-216 620.05,-188.91 578.21,-198.22 418,-180 390.98,-176.93 360.93,-173.12 336.24,-169.89"/>
<polygon fill="black" stroke="black" points="336.38,-166.37 326.01,-168.54 335.46,-173.31 336.38,-166.37"/>
</g>
<!-- libz.so.1&#45;&gt;libc.so.6 -->
<g id="edge75" class="edge">
<title>libz.so.1&#45;&gt;libc.so.6</title>
<path fill="none" stroke="black" d="M1582.85,-431.69C1564.65,-405.95 1534,-355.42 1534,-307 1534,-307 1534,-307 1534,-233 1534,-192.03 1540.87,-170.93 1510,-144 1456.39,-97.23 1241.48,-91.03 1144.23,-90.67"/>
<polygon fill="black" stroke="black" points="1144.09,-87.17 1134.08,-90.66 1144.08,-94.17 1144.09,-87.17"/>
</g>
<!-- libicui18n.so.71&#45;&gt;libc.so.6 -->
<g id="edge35" class="edge">
<title>libicui18n.so.71&#45;&gt;libc.so.6</title>
<path fill="none" stroke="black" d="M795.64,-359.85C829.29,-338.4 884.85,-298.77 919,-252 949.47,-210.28 925.43,-180.49 962,-144 985.19,-120.87 1019.7,-107.53 1047.9,-100.03"/>
<polygon fill="black" stroke="black" points="1049.11,-103.33 1057.97,-97.52 1047.42,-96.54 1049.11,-103.33"/>
</g>
<!-- libicui18n.so.71&#45;&gt;libgcc_s.so.1 -->
<g id="edge36" class="edge">
<title>libicui18n.so.71&#45;&gt;libgcc_s.so.1</title>
<path fill="none" stroke="black" d="M793.37,-359.85C852.32,-321.5 994.82,-228.82 1061.06,-185.73"/>
<polygon fill="black" stroke="black" points="1063.03,-188.62 1069.51,-180.23 1059.22,-182.75 1063.03,-188.62"/>
</g>
<!-- libicui18n.so.71&#45;&gt;libm.so.6 -->
<g id="edge39" class="edge">
<title>libicui18n.so.71&#45;&gt;libm.so.6</title>
<path fill="none" stroke="black" d="M701.58,-377.4C594.74,-376.69 389.22,-369.29 335,-324 314.34,-306.74 297.55,-231.13 289.74,-189.96"/>
<polygon fill="black" stroke="black" points="293.17,-189.25 287.91,-180.05 286.28,-190.52 293.17,-189.25"/>
</g>
<!-- libicui18n.so.71&#45;&gt;libpthread.so.0 -->
<g id="edge40" class="edge">
<title>libicui18n.so.71&#45;&gt;libpthread.so.0</title>
<path fill="none" stroke="black" d="M701.71,-368.5C658.36,-361.01 601.15,-347.5 555,-324 532.79,-312.69 531.33,-303.73 512,-288 499.97,-278.21 486.58,-267.57 474.96,-258.41"/>
<polygon fill="black" stroke="black" points="476.87,-255.46 466.85,-252.03 472.55,-260.97 476.87,-255.46"/>
</g>
<!-- libicui18n.so.71&#45;&gt;libstdc++.so.6 -->
<g id="edge41" class="edge">
<title>libicui18n.so.71&#45;&gt;libstdc++.so.6</title>
<path fill="none" stroke="black" d="M773.61,-359.68C780.93,-341.31 793.62,-311.71 808,-288 813.7,-278.6 820.78,-268.92 827.44,-260.44"/>
<polygon fill="black" stroke="black" points="830.35,-262.41 833.9,-252.42 824.9,-258.02 830.35,-262.41"/>
</g>
<!-- libicui18n.so.71&#45;&gt;libicudata.so.71 -->
<g id="edge37" class="edge">
<title>libicui18n.so.71&#45;&gt;libicudata.so.71</title>
<path fill="none" stroke="black" d="M759.52,-359.87C748.86,-335.46 729.2,-290.43 716.63,-261.64"/>
<polygon fill="black" stroke="black" points="719.71,-259.95 712.51,-252.19 713.3,-262.75 719.71,-259.95"/>
</g>
<!-- libicui18n.so.71&#45;&gt;libicuuc.so.71 -->
<g id="edge38" class="edge">
<title>libicui18n.so.71&#45;&gt;libicuuc.so.71</title>
<path fill="none" stroke="black" d="M731.53,-359.88C711.88,-350.39 687.28,-338.51 666.37,-328.42"/>
<polygon fill="black" stroke="black" points="667.88,-325.26 657.36,-324.07 664.84,-331.57 667.88,-325.26"/>
</g>
<!-- libicuuc.so.71&#45;&gt;ld&#45;linux&#45;x86&#45;64.so.2 -->
<g id="edge42" class="edge">
<title>libicuuc.so.71&#45;&gt;ld&#45;linux&#45;x86&#45;64.so.2</title>
<path fill="none" stroke="black" d="M564.12,-299.56C528.6,-296.22 482.17,-291.86 441,-288 398.33,-284 85.85,-283.68 57,-252 -35.61,-150.3 195.82,-72.88 327.41,-38.51"/>
<polygon fill="black" stroke="black" points="328.29,-41.9 337.09,-36.02 326.54,-35.12 328.29,-41.9"/>
</g>
<!-- libicuuc.so.71&#45;&gt;libc.so.6 -->
<g id="edge43" class="edge">
<title>libicuuc.so.71&#45;&gt;libc.so.6</title>
<path fill="none" stroke="black" d="M613.76,-287.67C605.84,-268.17 597.2,-236.57 613,-216 666.35,-146.56 936.71,-108.84 1048.02,-96.04"/>
<polygon fill="black" stroke="black" points="1048.42,-99.52 1057.97,-94.92 1047.64,-92.56 1048.42,-99.52"/>
</g>
<!-- libicuuc.so.71&#45;&gt;libgcc_s.so.1 -->
<g id="edge44" class="edge">
<title>libicuuc.so.71&#45;&gt;libgcc_s.so.1</title>
<path fill="none" stroke="black" d="M618.08,-287.98C614.57,-267.87 612.45,-234.79 631,-216 658.67,-187.98 911.06,-172.01 1031.98,-165.9"/>
<polygon fill="black" stroke="black" points="1032.39,-169.38 1042.21,-165.39 1032.05,-162.39 1032.39,-169.38"/>
</g>
<!-- libicuuc.so.71&#45;&gt;libm.so.6 -->
<g id="edge46" class="edge">
<title>libicuuc.so.71&#45;&gt;libm.so.6</title>
<path fill="none" stroke="black" d="M601.66,-287.72C571.57,-262.18 518.46,-217.23 516,-216 458.23,-187.23 384.54,-173.82 336.12,-167.75"/>
<polygon fill="black" stroke="black" points="336.53,-164.27 326.19,-166.56 335.7,-171.22 336.53,-164.27"/>
</g>
<!-- libicuuc.so.71&#45;&gt;libpthread.so.0 -->
<g id="edge47" class="edge">
<title>libicuuc.so.71&#45;&gt;libpthread.so.0</title>
<path fill="none" stroke="black" d="M578.7,-287.88C554.29,-278.22 523.6,-266.09 497.79,-255.88"/>
<polygon fill="black" stroke="black" points="498.74,-252.49 488.16,-252.07 496.17,-259 498.74,-252.49"/>
</g>
<!-- libicuuc.so.71&#45;&gt;libstdc++.so.6 -->
<g id="edge48" class="edge">
<title>libicuuc.so.71&#45;&gt;libstdc++.so.6</title>
<path fill="none" stroke="black" d="M677.24,-287.97C709.37,-278.06 750.05,-265.51 783.75,-255.12"/>
<polygon fill="black" stroke="black" points="784.99,-258.4 793.51,-252.11 782.92,-251.71 784.99,-258.4"/>
</g>
<!-- libicuuc.so.71&#45;&gt;libicudata.so.71 -->
<g id="edge45" class="edge">
<title>libicuuc.so.71&#45;&gt;libicudata.so.71</title>
<path fill="none" stroke="black" d="M642.52,-287.7C652.87,-278.97 665.59,-268.24 676.84,-258.75"/>
<polygon fill="black" stroke="black" points="679.33,-261.23 684.72,-252.1 674.82,-255.88 679.33,-261.23"/>
</g>
<!-- librt.so.1&#45;&gt;libc.so.6 -->
<g id="edge65" class="edge">
<title>librt.so.1&#45;&gt;libc.so.6</title>
<path fill="none" stroke="black" d="M1002.99,-359.94C999.06,-319.61 993.87,-216.4 1033,-144 1039.22,-132.49 1049.05,-122.44 1059.1,-114.27"/>
<polygon fill="black" stroke="black" points="1061.33,-116.98 1067.16,-108.13 1057.08,-111.41 1061.33,-116.98"/>
</g>
</g>
</svg>
