<?xml version="1.0" encoding="UTF-8" standalone="no"?>
<!DOCTYPE svg PUBLIC "-//W3C//DTD SVG 1.1//EN"
 "http://www.w3.org/Graphics/SVG/1.1/DTD/svg11.dtd">
<!-- Generated by graphviz version 3.0.0 (0)
 -->
<!-- Pages: 1 -->
<svg width="654pt" height="191pt"
 viewBox="0.00 0.00 653.50 191.00" xmlns="http://www.w3.org/2000/svg" xmlns:xlink="http://www.w3.org/1999/xlink">
<g id="graph0" class="graph" transform="scale(1 1) rotate(0) translate(4 187)">
<polygon fill="white" stroke="transparent" points="-4,4 -4,-187 649.5,-187 649.5,4 -4,4"/>
<!-- libmpfr.so.4 -->
<g id="node1" class="node">
<title>libmpfr.so.4</title>
<polygon fill="lightgreen" stroke="black" points="0,-73.5 0,-109.5 101,-109.5 101,-73.5 0,-73.5"/>
<text text-anchor="middle" x="50.5" y="-87.8" font-family="Times,serif" font-size="14.00">libmpfr.so.4</text>
</g>
<!-- libmpfr.so.3 -->
<g id="node2" class="node">
<title>libmpfr.so.3</title>
<polygon fill="lightgreen" stroke="black" points="118,-0.5 118,-36.5 219,-36.5 219,-0.5 118,-0.5"/>
<text text-anchor="middle" x="168.5" y="-14.8" font-family="Times,serif" font-size="14.00">libmpfr.so.3</text>
</g>
<!-- cc1 -->
<g id="node3" class="node">
<title>cc1</title>
<polygon fill="none" stroke="black" points="141.5,-146.5 141.5,-182.5 195.5,-182.5 195.5,-146.5 141.5,-146.5"/>
<text text-anchor="middle" x="168.5" y="-160.8" font-family="Times,serif" font-size="14.00">cc1</text>
</g>
<!-- cc1&#45;&gt;libmpfr.so.4 -->
<!-- cc1&#45;&gt;libmpfr.so.3 -->
<g id="edge3" class="edge">
<title>cc1&#45;&gt;libmpfr.so.3</title>
<path fill="none" stroke="black" d="M160.19,-146.12C155.76,-135.86 150.76,-122.49 148.5,-110 145.57,-93.82 145.57,-89.18 148.5,-73 150.12,-64.02 153.16,-54.59 156.39,-46.18"/>
<polygon fill="black" stroke="black" points="159.65,-47.46 160.19,-36.88 153.17,-44.81 159.65,-47.46"/>
</g>
<!-- libmpc.so.3 -->
<g id="node4" class="node">
<title>libmpc.so.3</title>
<polygon fill="none" stroke="black" points="157.5,-73.5 157.5,-109.5 255.5,-109.5 255.5,-73.5 157.5,-73.5"/>
<text text-anchor="middle" x="206.5" y="-87.8" font-family="Times,serif" font-size="14.00">libmpc.so.3</text>
</g>
<!-- cc1&#45;&gt;libmpc.so.3 -->
<g id="edge1" class="edge">
<title>cc1&#45;&gt;libmpc.so.3</title>
<path fill="none" stroke="black" d="M177.7,-146.31C182.18,-137.94 187.66,-127.7 192.64,-118.4"/>
<polygon fill="black" stroke="black" points="195.75,-120 197.39,-109.53 189.58,-116.69 195.75,-120"/>
</g>
<!-- ... -->
<g id="node5" class="node">
<title>...</title>
<polygon fill="none" stroke="black" points="273.5,-73.5 273.5,-109.5 327.5,-109.5 327.5,-73.5 273.5,-73.5"/>
<text text-anchor="middle" x="300.5" y="-87.8" font-family="Times,serif" font-size="14.00">...</text>
</g>
<!-- cc1&#45;&gt;... -->
<g id="edge5" class="edge">
<title>cc1&#45;&gt;...</title>
<path fill="none" stroke="black" d="M195.53,-148.96C215.33,-138.31 242.42,-123.74 264.12,-112.07"/>
<polygon fill="black" stroke="black" points="265.9,-115.08 273.05,-107.26 262.59,-108.92 265.9,-115.08"/>
</g>
<!-- libmpc.so.3&#45;&gt;libmpfr.so.3 -->
<g id="edge2" class="edge">
<title>libmpc.so.3&#45;&gt;libmpfr.so.3</title>
<path fill="none" stroke="black" d="M197.3,-73.31C192.82,-64.94 187.34,-54.7 182.36,-45.4"/>
<polygon fill="black" stroke="black" points="185.42,-43.69 177.61,-36.53 179.25,-47 185.42,-43.69"/>
</g>
<!-- libmpfr.so.4  -->
<g id="node6" class="node">
<title>libmpfr.so.4 </title>
<polygon fill="pink" stroke="black" points="468.5,-0.5 468.5,-36.5 574.5,-36.5 574.5,-0.5 468.5,-0.5"/>
<text text-anchor="middle" x="521.5" y="-14.8" font-family="Times,serif" font-size="14.00">libmpfr.so.4 </text>
</g>
<!-- libmpfr.so.3  -->
<g id="node7" class="node">
<title>libmpfr.so.3 </title>
<polygon fill="pink" stroke="black" points="345.5,-73.5 345.5,-109.5 451.5,-109.5 451.5,-73.5 345.5,-73.5"/>
<text text-anchor="middle" x="398.5" y="-87.8" font-family="Times,serif" font-size="14.00">libmpfr.so.3 </text>
</g>
<!-- cc1  -->
<g id="node8" class="node">
<title>cc1 </title>
<polygon fill="none" stroke="black" points="494.5,-146.5 494.5,-182.5 548.5,-182.5 548.5,-146.5 494.5,-146.5"/>
<text text-anchor="middle" x="521.5" y="-160.8" font-family="Times,serif" font-size="14.00">cc1 </text>
</g>
<!-- cc1 &#45;&gt;libmpfr.so.3  -->
<g id="edge8" class="edge">
<title>cc1 &#45;&gt;libmpfr.so.3 </title>
<path fill="none" stroke="black" d="M494.2,-147.74C477.42,-138.05 455.64,-125.49 437.11,-114.79"/>
<polygon fill="black" stroke="black" points="438.71,-111.67 428.3,-109.7 435.22,-117.73 438.71,-111.67"/>
</g>
<!-- libmpc.so.3  -->
<g id="node9" class="node">
<title>libmpc.so.3 </title>
<polygon fill="none" stroke="black" points="470,-73.5 470,-109.5 573,-109.5 573,-73.5 470,-73.5"/>
<text text-anchor="middle" x="521.5" y="-87.8" font-family="Times,serif" font-size="14.00">libmpc.so.3 </text>
</g>
<!-- cc1 &#45;&gt;libmpc.so.3  -->
<g id="edge6" class="edge">
<title>cc1 &#45;&gt;libmpc.so.3 </title>
<path fill="none" stroke="black" d="M521.5,-146.31C521.5,-138.29 521.5,-128.55 521.5,-119.57"/>
<polygon fill="black" stroke="black" points="525,-119.53 521.5,-109.53 518,-119.53 525,-119.53"/>
</g>
<!-- ...  -->
<g id="node10" class="node">
<title>... </title>
<polygon fill="none" stroke="black" points="591.5,-73.5 591.5,-109.5 645.5,-109.5 645.5,-73.5 591.5,-73.5"/>
<text text-anchor="middle" x="618.5" y="-87.8" font-family="Times,serif" font-size="14.00">... </text>
</g>
<!-- cc1 &#45;&gt;...  -->
<g id="edge9" class="edge">
<title>cc1 &#45;&gt;... </title>
<path fill="none" stroke="black" d="M544.98,-146.31C557.61,-137.07 573.36,-125.54 587.03,-115.53"/>
<polygon fill="black" stroke="black" points="589.23,-118.26 595.24,-109.53 585.1,-112.61 589.23,-118.26"/>
</g>
<!-- libmpc.so.3 &#45;&gt;libmpfr.so.4  -->
<g id="edge7" class="edge">
<title>libmpc.so.3 &#45;&gt;libmpfr.so.4 </title>
<path fill="none" stroke="red" d="M521.5,-73.31C521.5,-65.29 521.5,-55.55 521.5,-46.57"/>
<polygon fill="red" stroke="red" points="525,-46.53 521.5,-36.53 518,-46.53 525,-46.53"/>
</g>
</g>
</svg>
