<?xml version="1.0" encoding="UTF-8" standalone="no"?>
<!DOCTYPE svg PUBLIC "-//W3C//DTD SVG 1.1//EN"
 "http://www.w3.org/Graphics/SVG/1.1/DTD/svg11.dtd">
<!-- Generated by graphviz version 3.0.0 (0)
 -->
<!-- Pages: 1 -->
<svg width="754pt" height="118pt"
 viewBox="0.00 0.00 754.00 118.00" xmlns="http://www.w3.org/2000/svg" xmlns:xlink="http://www.w3.org/1999/xlink">
<g id="graph0" class="graph" transform="scale(1 1) rotate(0) translate(4 114)">
<polygon fill="white" stroke="transparent" points="-4,4 -4,-114 750,-114 750,4 -4,4"/>
<!-- strip&#45;2.38 -->
<g id="node1" class="node">
<title>strip&#45;2.38</title>
<polygon fill="none" stroke="black" points="69.5,-73.5 69.5,-109.5 155.5,-109.5 155.5,-73.5 69.5,-73.5"/>
<text text-anchor="middle" x="112.5" y="-87.8" font-family="Times,serif" font-size="14.00">strip&#45;2.38</text>
</g>
<!-- .../binutils/.../2.38/libbfd&#45;2.38.so -->
<g id="node2" class="node">
<title>.../binutils/.../2.38/libbfd&#45;2.38.so</title>
<polygon fill="none" stroke="black" points="0,-0.5 0,-36.5 245,-36.5 245,-0.5 0,-0.5"/>
<text text-anchor="middle" x="122.5" y="-14.8" font-family="Times,serif" font-size="14.00">.../binutils/.../2.38/libbfd&#45;2.38.so</text>
</g>
<!-- strip&#45;2.38&#45;&gt;.../binutils/.../2.38/libbfd&#45;2.38.so -->
<g id="edge1" class="edge">
<title>strip&#45;2.38&#45;&gt;.../binutils/.../2.38/libbfd&#45;2.38.so</title>
<path fill="none" stroke="black" stroke-dasharray="1,5" d="M114.92,-73.31C116.05,-65.29 117.42,-55.55 118.69,-46.57"/>
<polygon fill="black" stroke="black" points="122.17,-46.92 120.1,-36.53 115.24,-45.94 122.17,-46.92"/>
</g>
<!-- /usr/lib64/libbfd&#45;2.38.so -->
<g id="node5" class="node">
<title>/usr/lib64/libbfd&#45;2.38.so</title>
<polygon fill="none" stroke="black" points="263,-0.5 263,-36.5 450,-36.5 450,-0.5 263,-0.5"/>
<text text-anchor="middle" x="356.5" y="-14.8" font-family="Times,serif" font-size="14.00">/usr/lib64/libbfd&#45;2.38.so</text>
</g>
<!-- strip&#45;2.38&#45;&gt;/usr/lib64/libbfd&#45;2.38.so -->
<g id="edge4" class="edge">
<title>strip&#45;2.38&#45;&gt;/usr/lib64/libbfd&#45;2.38.so</title>
<path fill="none" stroke="red" d="M155.57,-75.81C158.59,-74.84 161.59,-73.9 164.5,-73 203.05,-61.15 246.29,-49 281.96,-39.28"/>
<polygon fill="red" stroke="red" points="283.08,-42.61 291.81,-36.61 281.25,-35.85 283.08,-42.61"/>
</g>
<!-- ld&#45;2.38 -->
<g id="node3" class="node">
<title>ld&#45;2.38</title>
<polygon fill="none" stroke="black" points="173.5,-73.5 173.5,-109.5 239.5,-109.5 239.5,-73.5 173.5,-73.5"/>
<text text-anchor="middle" x="206.5" y="-87.8" font-family="Times,serif" font-size="14.00">ld&#45;2.38</text>
</g>
<!-- ld&#45;2.38&#45;&gt;.../binutils/.../2.38/libbfd&#45;2.38.so -->
<g id="edge2" class="edge">
<title>ld&#45;2.38&#45;&gt;.../binutils/.../2.38/libbfd&#45;2.38.so</title>
<path fill="none" stroke="black" stroke-dasharray="1,5" d="M186.17,-73.31C175.44,-64.24 162.11,-52.98 150.42,-43.1"/>
<polygon fill="black" stroke="black" points="152.54,-40.31 142.65,-36.53 148.02,-45.66 152.54,-40.31"/>
</g>
<!-- ld&#45;2.38&#45;&gt;/usr/lib64/libbfd&#45;2.38.so -->
<g id="edge5" class="edge">
<title>ld&#45;2.38&#45;&gt;/usr/lib64/libbfd&#45;2.38.so</title>
<path fill="none" stroke="red" d="M239.79,-74.74C260.8,-64.8 288.22,-51.82 311.2,-40.94"/>
<polygon fill="red" stroke="red" points="312.88,-44.02 320.42,-36.58 309.88,-37.69 312.88,-44.02"/>
</g>
<!-- ... -->
<g id="node4" class="node">
<title>...</title>
<polygon fill="none" stroke="black" points="257.5,-73.5 257.5,-109.5 311.5,-109.5 311.5,-73.5 257.5,-73.5"/>
<text text-anchor="middle" x="284.5" y="-87.8" font-family="Times,serif" font-size="14.00">...</text>
</g>
<!-- ...&#45;&gt;.../binutils/.../2.38/libbfd&#45;2.38.so -->
<g id="edge3" class="edge">
<title>...&#45;&gt;.../binutils/.../2.38/libbfd&#45;2.38.so</title>
<path fill="none" stroke="black" stroke-dasharray="1,5" d="M257.44,-77.16C254.44,-75.74 251.41,-74.32 248.5,-73 223.97,-61.84 196.46,-50.07 173.41,-40.42"/>
<polygon fill="black" stroke="black" points="174.74,-37.18 164.16,-36.56 172.04,-43.64 174.74,-37.18"/>
</g>
<!-- ...&#45;&gt;/usr/lib64/libbfd&#45;2.38.so -->
<g id="edge6" class="edge">
<title>...&#45;&gt;/usr/lib64/libbfd&#45;2.38.so</title>
<path fill="none" stroke="red" d="M301.93,-73.31C310.95,-64.42 322.11,-53.41 331.99,-43.67"/>
<polygon fill="red" stroke="red" points="334.57,-46.04 339.23,-36.53 329.65,-41.06 334.57,-46.04"/>
</g>
<!-- ld&#45;2.37 -->
<g id="node6" class="node">
<title>ld&#45;2.37</title>
<polygon fill="none" stroke="black" points="567.5,-73.5 567.5,-109.5 633.5,-109.5 633.5,-73.5 567.5,-73.5"/>
<text text-anchor="middle" x="600.5" y="-87.8" font-family="Times,serif" font-size="14.00">ld&#45;2.37</text>
</g>
<!-- .../binutils/.../2.37/libbfd&#45;2.37.so -->
<g id="node7" class="node">
<title>.../binutils/.../2.37/libbfd&#45;2.37.so</title>
<polygon fill="none" stroke="black" points="501,-0.5 501,-36.5 746,-36.5 746,-0.5 501,-0.5"/>
<text text-anchor="middle" x="623.5" y="-14.8" font-family="Times,serif" font-size="14.00">.../binutils/.../2.37/libbfd&#45;2.37.so</text>
</g>
<!-- ld&#45;2.37&#45;&gt;.../binutils/.../2.37/libbfd&#45;2.37.so -->
<g id="edge7" class="edge">
<title>ld&#45;2.37&#45;&gt;.../binutils/.../2.37/libbfd&#45;2.37.so</title>
<path fill="none" stroke="black" d="M606.07,-73.31C608.7,-65.2 611.89,-55.34 614.83,-46.28"/>
<polygon fill="black" stroke="black" points="618.23,-47.12 617.98,-36.53 611.57,-44.96 618.23,-47.12"/>
</g>
<!-- ...  -->
<g id="node8" class="node">
<title>... </title>
<polygon fill="none" stroke="black" points="651.5,-73.5 651.5,-109.5 705.5,-109.5 705.5,-73.5 651.5,-73.5"/>
<text text-anchor="middle" x="678.5" y="-87.8" font-family="Times,serif" font-size="14.00">... </text>
</g>
<!-- ... &#45;&gt;.../binutils/.../2.37/libbfd&#45;2.37.so -->
<g id="edge8" class="edge">
<title>... &#45;&gt;.../binutils/.../2.37/libbfd&#45;2.37.so</title>
<path fill="none" stroke="black" d="M665.19,-73.31C658.5,-64.68 650.27,-54.06 642.89,-44.53"/>
<polygon fill="black" stroke="black" points="645.58,-42.29 636.69,-36.53 640.05,-46.58 645.58,-42.29"/>
</g>
<!-- perf -->
<g id="node9" class="node">
<title>perf</title>
<polygon fill="none" stroke="black" points="329.5,-73.5 329.5,-109.5 383.5,-109.5 383.5,-73.5 329.5,-73.5"/>
<text text-anchor="middle" x="356.5" y="-87.8" font-family="Times,serif" font-size="14.00">perf</text>
</g>
<!-- perf&#45;&gt;/usr/lib64/libbfd&#45;2.38.so -->
<g id="edge9" class="edge">
<title>perf&#45;&gt;/usr/lib64/libbfd&#45;2.38.so</title>
<path fill="none" stroke="black" d="M356.5,-73.31C356.5,-65.29 356.5,-55.55 356.5,-46.57"/>
<polygon fill="black" stroke="black" points="360,-46.53 356.5,-36.53 353,-46.53 360,-46.53"/>
</g>
<!-- ghc -->
<g id="node10" class="node">
<title>ghc</title>
<polygon fill="none" stroke="black" points="401.5,-73.5 401.5,-109.5 455.5,-109.5 455.5,-73.5 401.5,-73.5"/>
<text text-anchor="middle" x="428.5" y="-87.8" font-family="Times,serif" font-size="14.00">ghc</text>
</g>
<!-- ghc&#45;&gt;/usr/lib64/libbfd&#45;2.38.so -->
<g id="edge10" class="edge">
<title>ghc&#45;&gt;/usr/lib64/libbfd&#45;2.38.so</title>
<path fill="none" stroke="black" d="M411.07,-73.31C402.05,-64.42 390.89,-53.41 381.01,-43.67"/>
<polygon fill="black" stroke="black" points="383.35,-41.06 373.77,-36.53 378.43,-46.04 383.35,-41.06"/>
</g>
<!-- ... &#160; -->
<g id="node11" class="node">
<title>... &#160;</title>
<polygon fill="none" stroke="black" points="473.5,-73.5 473.5,-109.5 527.5,-109.5 527.5,-73.5 473.5,-73.5"/>
<text text-anchor="middle" x="500.5" y="-87.8" font-family="Times,serif" font-size="14.00">... &#160;</text>
</g>
<!-- ... &#160;&#45;&gt;/usr/lib64/libbfd&#45;2.38.so -->
<g id="edge11" class="edge">
<title>... &#160;&#45;&gt;/usr/lib64/libbfd&#45;2.38.so</title>
<path fill="none" stroke="black" d="M473.41,-77.15C452.84,-67 424.13,-52.85 400.31,-41.1"/>
<polygon fill="black" stroke="black" points="401.63,-37.85 391.11,-36.56 398.53,-44.13 401.63,-37.85"/>
</g>
</g>
</svg>
