<?xml version="1.0" encoding="UTF-8" standalone="no"?>
<!DOCTYPE svg PUBLIC "-//W3C//DTD SVG 1.1//EN"
 "http://www.w3.org/Graphics/SVG/1.1/DTD/svg11.dtd">
<!-- Generated by graphviz version 3.0.0 (0)
 -->
<!-- Pages: 1 -->
<svg width="1109pt" height="404pt"
 viewBox="0.00 0.00 1108.50 404.00" xmlns="http://www.w3.org/2000/svg" xmlns:xlink="http://www.w3.org/1999/xlink">
<g id="graph0" class="graph" transform="scale(1 1) rotate(0) translate(4 400)">
<polygon fill="white" stroke="transparent" points="-4,4 -4,-400 1104.5,-400 1104.5,4 -4,4"/>
<!-- gdb -->
<g id="node1" class="node">
<title>gdb</title>
<polygon fill="none" stroke="black" points="614.5,-396 560.5,-396 560.5,-360 614.5,-360 614.5,-396"/>
<text text-anchor="middle" x="587.5" y="-374.3" font-family="Times,serif" font-size="14.00">gdb</text>
</g>
<!-- libboost_regex.so.1.77.0 -->
<g id="node2" class="node">
<title>libboost_regex.so.1.77.0</title>
<polygon fill="none" stroke="black" points="277,-252 86,-252 86,-216 277,-216 277,-252"/>
<text text-anchor="middle" x="181.5" y="-230.3" font-family="Times,serif" font-size="14.00">libboost_regex.so.1.77.0</text>
</g>
<!-- gdb&#45;&gt;libboost_regex.so.1.77.0 -->
<g id="edge1" class="edge">
<title>gdb&#45;&gt;libboost_regex.so.1.77.0</title>
<path fill="none" stroke="black" d="M560.29,-376C486.58,-372.82 285.01,-360.87 231.5,-324 210.15,-309.29 196.88,-282.33 189.42,-261.92"/>
<polygon fill="black" stroke="black" points="192.65,-260.57 186.12,-252.23 186.03,-262.83 192.65,-260.57"/>
</g>
<!-- libcrypt.so.1 -->
<g id="node3" class="node">
<title>libcrypt.so.1</title>
<polygon fill="none" stroke="black" points="459.5,-252 353.5,-252 353.5,-216 459.5,-216 459.5,-252"/>
<text text-anchor="middle" x="406.5" y="-230.3" font-family="Times,serif" font-size="14.00">libcrypt.so.1</text>
</g>
<!-- gdb&#45;&gt;libcrypt.so.1 -->
<g id="edge2" class="edge">
<title>gdb&#45;&gt;libcrypt.so.1</title>
<path fill="none" stroke="black" d="M560.14,-373.51C512.03,-366.76 415.45,-350.21 395.5,-324 382.09,-306.38 386.97,-280.87 393.96,-261.68"/>
<polygon fill="black" stroke="black" points="397.25,-262.87 397.72,-252.29 390.76,-260.27 397.25,-262.87"/>
</g>
<!-- libexpat.so.1 -->
<g id="node4" class="node">
<title>libexpat.so.1</title>
<polygon fill="none" stroke="black" points="348.5,-324 240.5,-324 240.5,-288 348.5,-288 348.5,-324"/>
<text text-anchor="middle" x="294.5" y="-302.3" font-family="Times,serif" font-size="14.00">libexpat.so.1</text>
</g>
<!-- gdb&#45;&gt;libexpat.so.1 -->
<g id="edge3" class="edge">
<title>gdb&#45;&gt;libexpat.so.1</title>
<path fill="none" stroke="black" d="M560.46,-370.76C518.18,-360.96 433.87,-341.33 362.5,-324 361.24,-323.69 359.96,-323.38 358.67,-323.07"/>
<polygon fill="black" stroke="black" points="359.22,-319.6 348.67,-320.61 357.55,-326.4 359.22,-319.6"/>
</g>
<!-- libgmp.so.10 -->
<g id="node5" class="node">
<title>libgmp.so.10</title>
<polygon fill="none" stroke="black" points="826,-252 717,-252 717,-216 826,-216 826,-252"/>
<text text-anchor="middle" x="771.5" y="-230.3" font-family="Times,serif" font-size="14.00">libgmp.so.10</text>
</g>
<!-- gdb&#45;&gt;libgmp.so.10 -->
<g id="edge4" class="edge">
<title>gdb&#45;&gt;libgmp.so.10</title>
<path fill="none" stroke="black" d="M614.69,-374.05C665.29,-367.93 770.78,-352.05 792.5,-324 806.45,-305.99 798.16,-280.2 788.18,-261.01"/>
<polygon fill="black" stroke="black" points="791.18,-259.2 783.24,-252.19 785.07,-262.63 791.18,-259.2"/>
</g>
<!-- libipt.so.2 -->
<g id="node6" class="node">
<title>libipt.so.2</title>
<polygon fill="none" stroke="black" points="492.5,-324 404.5,-324 404.5,-288 492.5,-288 492.5,-324"/>
<text text-anchor="middle" x="448.5" y="-302.3" font-family="Times,serif" font-size="14.00">libipt.so.2</text>
</g>
<!-- gdb&#45;&gt;libipt.so.2 -->
<g id="edge5" class="edge">
<title>gdb&#45;&gt;libipt.so.2</title>
<path fill="none" stroke="black" d="M560.37,-363.34C540.79,-353.48 513.95,-339.96 491.47,-328.64"/>
<polygon fill="black" stroke="black" points="492.96,-325.47 482.45,-324.1 489.81,-331.72 492.96,-325.47"/>
</g>
<!-- libmpfr.so.6 -->
<g id="node7" class="node">
<title>libmpfr.so.6</title>
<polygon fill="none" stroke="black" points="784,-324 683,-324 683,-288 784,-288 784,-324"/>
<text text-anchor="middle" x="733.5" y="-302.3" font-family="Times,serif" font-size="14.00">libmpfr.so.6</text>
</g>
<!-- gdb&#45;&gt;libmpfr.so.6 -->
<g id="edge6" class="edge">
<title>gdb&#45;&gt;libmpfr.so.6</title>
<path fill="none" stroke="black" d="M614.62,-364C635.46,-354.01 664.69,-339.99 688.95,-328.36"/>
<polygon fill="black" stroke="black" points="690.47,-331.51 697.98,-324.03 687.45,-325.2 690.47,-331.51"/>
</g>
<!-- libncursesw.so.6 -->
<g id="node8" class="node">
<title>libncursesw.so.6</title>
<polygon fill="none" stroke="black" points="1017.5,-252 883.5,-252 883.5,-216 1017.5,-216 1017.5,-252"/>
<text text-anchor="middle" x="950.5" y="-230.3" font-family="Times,serif" font-size="14.00">libncursesw.so.6</text>
</g>
<!-- gdb&#45;&gt;libncursesw.so.6 -->
<g id="edge7" class="edge">
<title>gdb&#45;&gt;libncursesw.so.6</title>
<path fill="none" stroke="black" d="M614.79,-375.34C699.47,-369.9 953.57,-351.41 977.5,-324 992.97,-306.28 982.09,-279.91 969.84,-260.46"/>
<polygon fill="black" stroke="black" points="972.69,-258.43 964.2,-252.08 966.87,-262.33 972.69,-258.43"/>
</g>
<!-- libpython3.9.so.1.0 -->
<g id="node9" class="node">
<title>libpython3.9.so.1.0</title>
<polygon fill="none" stroke="black" points="664.5,-324 510.5,-324 510.5,-288 664.5,-288 664.5,-324"/>
<text text-anchor="middle" x="587.5" y="-302.3" font-family="Times,serif" font-size="14.00">libpython3.9.so.1.0</text>
</g>
<!-- gdb&#45;&gt;libpython3.9.so.1.0 -->
<g id="edge8" class="edge">
<title>gdb&#45;&gt;libpython3.9.so.1.0</title>
<path fill="none" stroke="black" d="M587.5,-359.7C587.5,-351.98 587.5,-342.71 587.5,-334.11"/>
<polygon fill="black" stroke="black" points="591,-334.1 587.5,-324.1 584,-334.1 591,-334.1"/>
</g>
<!-- libreadline.so.8 -->
<g id="node10" class="node">
<title>libreadline.so.8</title>
<polygon fill="none" stroke="black" points="968,-324 841,-324 841,-288 968,-288 968,-324"/>
<text text-anchor="middle" x="904.5" y="-302.3" font-family="Times,serif" font-size="14.00">libreadline.so.8</text>
</g>
<!-- gdb&#45;&gt;libreadline.so.8 -->
<g id="edge9" class="edge">
<title>gdb&#45;&gt;libreadline.so.8</title>
<path fill="none" stroke="black" d="M614.53,-371.03C661.98,-360.55 761.78,-338.51 830.95,-323.24"/>
<polygon fill="black" stroke="black" points="831.91,-326.61 840.92,-321.04 830.41,-319.78 831.91,-326.61"/>
</g>
<!-- libsource&#45;highlight.so.4 -->
<g id="node11" class="node">
<title>libsource&#45;highlight.so.4</title>
<polygon fill="none" stroke="black" points="185,-324 0,-324 0,-288 185,-288 185,-324"/>
<text text-anchor="middle" x="92.5" y="-302.3" font-family="Times,serif" font-size="14.00">libsource&#45;highlight.so.4</text>
</g>
<!-- gdb&#45;&gt;libsource&#45;highlight.so.4 -->
<g id="edge10" class="edge">
<title>gdb&#45;&gt;libsource&#45;highlight.so.4</title>
<path fill="none" stroke="black" d="M560.11,-373.49C496.54,-365.31 334.02,-344.1 198.5,-324 197.42,-323.84 196.33,-323.68 195.23,-323.51"/>
<polygon fill="black" stroke="black" points="195.67,-320.04 185.26,-322.01 194.63,-326.96 195.67,-320.04"/>
</g>
<!-- libz.so.1 -->
<g id="node12" class="node">
<title>libz.so.1</title>
<polygon fill="none" stroke="black" points="1100.5,-324 1024.5,-324 1024.5,-288 1100.5,-288 1100.5,-324"/>
<text text-anchor="middle" x="1062.5" y="-302.3" font-family="Times,serif" font-size="14.00">libz.so.1</text>
</g>
<!-- gdb&#45;&gt;libz.so.1 -->
<g id="edge11" class="edge">
<title>gdb&#45;&gt;libz.so.1</title>
<path fill="none" stroke="black" d="M614.53,-375.41C682.04,-371.06 863.17,-356.99 1010.5,-324 1011.78,-323.71 1013.07,-323.41 1014.37,-323.09"/>
<polygon fill="black" stroke="black" points="1015.66,-326.37 1024.39,-320.38 1013.83,-319.61 1015.66,-326.37"/>
</g>
<!-- libicudata.so.71 -->
<g id="node13" class="node">
<title>libicudata.so.71</title>
<polygon fill="none" stroke="black" points="218.5,-36 88.5,-36 88.5,0 218.5,0 218.5,-36"/>
<text text-anchor="middle" x="153.5" y="-14.3" font-family="Times,serif" font-size="14.00">libicudata.so.71</text>
</g>
<!-- libboost_regex.so.1.77.0&#45;&gt;libicudata.so.71 -->
<g id="edge12" class="edge">
<title>libboost_regex.so.1.77.0&#45;&gt;libicudata.so.71</title>
<path fill="none" stroke="black" d="M144.11,-215.8C129.96,-207.2 115.37,-195.32 107.5,-180 84.55,-135.33 113.52,-77.63 134.79,-44.83"/>
<polygon fill="black" stroke="black" points="137.87,-46.52 140.54,-36.27 132.06,-42.62 137.87,-46.52"/>
</g>
<!-- libicui18n.so.71 -->
<g id="node14" class="node">
<title>libicui18n.so.71</title>
<polygon fill="none" stroke="black" points="246.5,-180 116.5,-180 116.5,-144 246.5,-144 246.5,-180"/>
<text text-anchor="middle" x="181.5" y="-158.3" font-family="Times,serif" font-size="14.00">libicui18n.so.71</text>
</g>
<!-- libboost_regex.so.1.77.0&#45;&gt;libicui18n.so.71 -->
<g id="edge13" class="edge">
<title>libboost_regex.so.1.77.0&#45;&gt;libicui18n.so.71</title>
<path fill="none" stroke="black" d="M181.5,-215.7C181.5,-207.98 181.5,-198.71 181.5,-190.11"/>
<polygon fill="black" stroke="black" points="185,-190.1 181.5,-180.1 178,-190.1 185,-190.1"/>
</g>
<!-- libicuuc.so.71 -->
<g id="node15" class="node">
<title>libicuuc.so.71</title>
<polygon fill="none" stroke="black" points="297,-108 182,-108 182,-72 297,-72 297,-108"/>
<text text-anchor="middle" x="239.5" y="-86.3" font-family="Times,serif" font-size="14.00">libicuuc.so.71</text>
</g>
<!-- libboost_regex.so.1.77.0&#45;&gt;libicuuc.so.71 -->
<g id="edge14" class="edge">
<title>libboost_regex.so.1.77.0&#45;&gt;libicuuc.so.71</title>
<path fill="none" stroke="black" d="M218.89,-215.8C233.04,-207.2 247.63,-195.32 255.5,-180 265.53,-160.47 259.83,-135.71 252.59,-117.27"/>
<polygon fill="black" stroke="black" points="255.77,-115.82 248.62,-108.01 249.34,-118.58 255.77,-115.82"/>
</g>
<!-- libmpfr.so.6&#45;&gt;libgmp.so.10 -->
<g id="edge18" class="edge">
<title>libmpfr.so.6&#45;&gt;libgmp.so.10</title>
<path fill="none" stroke="black" d="M742.89,-287.7C747.26,-279.64 752.56,-269.89 757.4,-260.98"/>
<polygon fill="black" stroke="black" points="760.52,-262.56 762.21,-252.1 754.37,-259.22 760.52,-262.56"/>
</g>
<!-- libpython3.9.so.1.0&#45;&gt;libcrypt.so.1 -->
<g id="edge19" class="edge">
<title>libpython3.9.so.1.0&#45;&gt;libcrypt.so.1</title>
<path fill="none" stroke="black" d="M543.22,-287.88C518.15,-278.18 486.6,-265.98 460.13,-255.74"/>
<polygon fill="black" stroke="black" points="461.22,-252.41 450.63,-252.07 458.7,-258.94 461.22,-252.41"/>
</g>
<!-- libreadline.so.8&#45;&gt;libncursesw.so.6 -->
<g id="edge20" class="edge">
<title>libreadline.so.8&#45;&gt;libncursesw.so.6</title>
<path fill="none" stroke="black" d="M915.87,-287.7C921.22,-279.56 927.7,-269.69 933.61,-260.7"/>
<polygon fill="black" stroke="black" points="936.69,-262.38 939.26,-252.1 930.84,-258.54 936.69,-262.38"/>
</g>
<!-- libsource&#45;highlight.so.4&#45;&gt;libboost_regex.so.1.77.0 -->
<g id="edge21" class="edge">
<title>libsource&#45;highlight.so.4&#45;&gt;libboost_regex.so.1.77.0</title>
<path fill="none" stroke="black" d="M114.5,-287.7C125.71,-278.88 139.5,-268.03 151.65,-258.47"/>
<polygon fill="black" stroke="black" points="154.06,-261.04 159.75,-252.1 149.73,-255.54 154.06,-261.04"/>
</g>
<!-- libicui18n.so.71&#45;&gt;libicudata.so.71 -->
<g id="edge15" class="edge">
<title>libicui18n.so.71&#45;&gt;libicudata.so.71</title>
<path fill="none" stroke="black" d="M178.12,-143.87C173.33,-119.56 164.51,-74.82 158.83,-46.01"/>
<polygon fill="black" stroke="black" points="162.26,-45.32 156.89,-36.19 155.39,-46.68 162.26,-45.32"/>
</g>
<!-- libicui18n.so.71&#45;&gt;libicuuc.so.71 -->
<g id="edge16" class="edge">
<title>libicui18n.so.71&#45;&gt;libicuuc.so.71</title>
<path fill="none" stroke="black" d="M195.84,-143.7C202.79,-135.3 211.27,-125.07 218.9,-115.86"/>
<polygon fill="black" stroke="black" points="221.64,-118.04 225.33,-108.1 216.25,-113.57 221.64,-118.04"/>
</g>
<!-- libicuuc.so.71&#45;&gt;libicudata.so.71 -->
<g id="edge17" class="edge">
<title>libicuuc.so.71&#45;&gt;libicudata.so.71</title>
<path fill="none" stroke="black" d="M218.24,-71.7C207.41,-62.88 194.08,-52.03 182.34,-42.47"/>
<polygon fill="black" stroke="black" points="184.48,-39.7 174.51,-36.1 180.06,-45.13 184.48,-39.7"/>
</g>
</g>
</svg>
